<svg width="1440" height="550" fill="none" xmlns="http://www.w3.org/2000/svg"><path d="M55 515.75h221m217 0h947m-1167-365h1167m-1166 182h1166m-1440 0h51" stroke="#3C4556" stroke-linecap="square"/><path clip-rule="evenodd" d="M275 0v359V0zm0 516v34-34zM493 0v550V0zm437 150v400-400zm218.5 0v400-400zm218.5 0v400-400zM711.5 0v550V0z" stroke="#3C4556" stroke-linecap="square"/><path fill-rule="evenodd" clip-rule="evenodd" d="M56.277 337.104c2.763 0 5.002-2.27 5.002-5.069 0-2.8-2.24-5.069-5.002-5.069-2.762 0-5.002 2.269-5.002 5.069 0 2.799 2.24 5.069 5.002 5.069zm0 184.172c2.763 0 5.002-2.269 5.002-5.069 0-2.799-2.24-5.069-5.002-5.069-2.762 0-5.002 2.27-5.002 5.069 0 2.8 2.24 5.069 5.002 5.069zM274.7 337.104c2.763 0 5.002-2.27 5.002-5.069 0-2.8-2.239-5.069-5.002-5.069-2.762 0-5.002 2.269-5.002 5.069 0 2.799 2.24 5.069 5.002 5.069zm0 184.172c2.763 0 5.002-2.269 5.002-5.069 0-2.799-2.239-5.069-5.002-5.069-2.762 0-5.002 2.27-5.002 5.069 0 2.8 2.24 5.069 5.002 5.069zm218.423-184.172c2.763 0 5.002-2.27 5.002-5.069 0-2.8-2.239-5.069-5.002-5.069-2.762 0-5.002 2.269-5.002 5.069 0 2.799 2.24 5.069 5.002 5.069zm0 184.172c2.763 0 5.002-2.269 5.002-5.069 0-2.799-2.239-5.069-5.002-5.069-2.762 0-5.002 2.27-5.002 5.069 0 2.8 2.24 5.069 5.002 5.069zm0-364.965c2.763 0 5.002-2.27 5.002-5.069 0-2.8-2.239-5.069-5.002-5.069-2.762 0-5.002 2.269-5.002 5.069 0 2.799 2.24 5.069 5.002 5.069zm218.423 0c2.763 0 5.002-2.27 5.002-5.069 0-2.8-2.239-5.069-5.002-5.069-2.762 0-5.002 2.269-5.002 5.069 0 2.799 2.24 5.069 5.002 5.069zm0 180.793c2.763 0 5.002-2.27 5.002-5.069 0-2.8-2.239-5.069-5.002-5.069-2.762 0-5.002 2.269-5.002 5.069 0 2.799 2.24 5.069 5.002 5.069zm0 184.172c2.763 0 5.002-2.269 5.002-5.069 0-2.799-2.239-5.069-5.002-5.069-2.762 0-5.002 2.27-5.002 5.069 0 2.8 2.24 5.069 5.002 5.069zm218.423-184.172c2.763 0 5.002-2.27 5.002-5.069 0-2.8-2.239-5.069-5.002-5.069-2.762 0-5.002 2.269-5.002 5.069 0 2.799 2.24 5.069 5.002 5.069zm0 184.172c2.763 0 5.002-2.269 5.002-5.069 0-2.799-2.239-5.069-5.002-5.069-2.762 0-5.002 2.27-5.002 5.069 0 2.8 2.24 5.069 5.002 5.069zm0-364.965c2.763 0 5.002-2.27 5.002-5.069 0-2.8-2.239-5.069-5.002-5.069-2.762 0-5.002 2.269-5.002 5.069 0 2.799 2.24 5.069 5.002 5.069zm218.421 0c2.76 0 5-2.27 5-5.069 0-2.8-2.24-5.069-5-5.069s-5 2.269-5 5.069c0 2.799 2.24 5.069 5 5.069zm0 180.793c2.76 0 5-2.27 5-5.069 0-2.8-2.24-5.069-5-5.069s-5 2.269-5 5.069c0 2.799 2.24 5.069 5 5.069zm0 184.172c2.76 0 5-2.269 5-5.069 0-2.799-2.24-5.069-5-5.069s-5 2.27-5 5.069c0 2.8 2.24 5.069 5 5.069zm218.43-184.172c2.76 0 5-2.27 5-5.069 0-2.8-2.24-5.069-5-5.069-2.77 0-5.01 2.269-5.01 5.069 0 2.799 2.24 5.069 5.01 5.069zm0 184.172c2.76 0 5-2.269 5-5.069 0-2.799-2.24-5.069-5-5.069-2.77 0-5.01 2.27-5.01 5.069 0 2.8 2.24 5.069 5.01 5.069zm0-364.965c2.76 0 5-2.27 5-5.069 0-2.8-2.24-5.069-5-5.069-2.77 0-5.01 2.269-5.01 5.069 0 2.799 2.24 5.069 5.01 5.069zm-1092.12 0c2.763 0 5.002-2.27 5.002-5.069 0-2.8-2.239-5.069-5.002-5.069-2.762 0-5.002 2.269-5.002 5.069 0 2.799 2.24 5.069 5.002 5.069z" fill="#3C4556"/></svg>