<svg width="583" height="300" viewBox="0 0 583 300" fill="none" xmlns="http://www.w3.org/2000/svg">

    <path
        d="M173.028 244.124C173.657 245.677 174.351 247.231 175.111 248.719C186.419 270.902 209.364 284.886 233.831 287.398C253.404 289.382 272.448 283.002 288.814 272.588C305.147 262.207 318.24 247.595 336.391 239.991C361.982 229.313 390.515 220.883 410.584 198.27C433.397 172.583 442.192 133.639 431.446 100.778C420.998 68.7103 386.316 58.3296 359.37 44.2133C310.933 18.7906 243.849 1.89719 193.428 31.7499C133.023 67.4871 143.999 148.615 163.143 204.915C167.507 217.742 168.036 231.561 173.028 244.124Z"
        fill="#E7F4FF" />
    <path
        d="M203.844 92.1164L203.745 91.4882H203.116C190.883 91.4882 186.916 87.5542 186.883 87.5211L186.354 86.926L185.825 87.5211C185.791 87.5542 181.857 91.4882 169.591 91.4882H168.963L168.863 92.1164C168.83 92.3147 166.251 112.018 186.023 122.134L186.354 122.3L186.684 122.134C206.522 112.018 203.844 92.3147 203.844 92.1164ZM200.868 104.315C198.421 111.39 193.528 116.878 186.32 120.647C179.113 116.878 174.22 111.39 171.773 104.315C169.988 99.125 170.087 94.5958 170.219 92.9759C180.402 92.8437 184.932 90.1328 186.32 89.0088C187.709 90.0997 192.239 92.8437 202.422 92.9759C202.554 94.6289 202.653 99.125 200.868 104.315Z"
        fill="#FFC700" />
    <path
        d="M223.25 66.7928L222.556 64.9746C221.928 64.9084 221.332 64.7431 220.737 64.5448L219.316 65.8672L215.216 62.9249L216.009 61.1397C215.613 60.6438 215.282 60.1148 215.017 59.5528L213.067 59.4867L212.24 54.4947L214.059 53.8005C214.125 53.1723 214.29 52.5773 214.488 51.9822L213.166 50.5607L216.109 46.4282L217.894 47.2217C218.39 46.8249 218.919 46.4943 219.481 46.2299L219.547 44.2794L224.54 43.4529L225.234 45.2711C225.862 45.3373 226.457 45.5026 227.052 45.7009L228.474 44.3785L232.574 47.3208L231.78 49.106C232.177 49.6019 232.508 50.1309 232.772 50.6929L234.723 50.759L235.549 55.751L233.731 56.4452C233.632 57.0734 233.5 57.6684 233.301 58.2635L234.624 59.6851L231.681 63.8175L229.896 63.024C229.4 63.4208 228.871 63.7514 228.309 64.0158L228.243 65.9663L223.25 66.7928ZM220.407 62.9579L220.803 63.1232C221.531 63.4208 222.324 63.5861 223.118 63.6522L223.548 63.6852L224.143 65.239L226.887 64.7762L226.953 63.1232L227.35 62.9579C228.077 62.6273 228.739 62.1976 229.367 61.7017L229.697 61.4372L231.218 62.1314L232.838 59.8834L231.681 58.6602L231.846 58.2635C232.144 57.5362 232.309 56.7428 232.375 55.9493L232.408 55.5196L233.962 54.9245L233.5 52.1806L231.846 52.1144L231.681 51.7177C231.35 50.9904 230.921 50.3292 230.425 49.7011L230.16 49.3705L230.855 47.8498L228.606 46.2299L227.383 47.3539L226.986 47.1886C226.259 46.8911 225.465 46.7258 224.672 46.6596L224.242 46.6266L223.647 45.0728L220.903 45.5356L220.837 47.1886L220.44 47.3539C219.712 47.6845 219.051 48.1143 218.423 48.6102L218.092 48.8746L216.571 48.1804L214.951 50.4284L216.109 51.6516L215.943 52.0483C215.646 52.7756 215.48 53.5691 215.414 54.3625L215.381 54.7923L213.827 55.3873L214.29 58.1313L215.943 58.1974L216.109 58.5941C216.439 59.3214 216.869 59.9826 217.365 60.6107L217.629 60.9413L216.935 62.462L219.183 64.082L220.407 62.9579ZM223.845 60.6438C222.721 60.6438 221.597 60.2801 220.671 59.6189C218.192 57.8668 217.629 54.4286 219.382 51.9491C221.134 49.4697 224.573 48.9077 227.052 50.6598C228.243 51.5194 229.036 52.7756 229.301 54.2303C229.532 55.6849 229.201 57.1395 228.375 58.3296C227.515 59.5198 226.259 60.3132 224.804 60.5777C224.44 60.6107 224.143 60.6438 223.845 60.6438ZM223.845 51.0235C222.556 51.0235 221.299 51.6186 220.506 52.7426C219.878 53.6352 219.613 54.7261 219.812 55.8171C220.01 56.9081 220.572 57.8337 221.465 58.4619C222.357 59.09 223.448 59.3545 224.54 59.1561C225.631 58.9577 226.556 58.3957 227.185 57.5031C227.813 56.6105 228.077 55.5196 227.879 54.4286C227.681 53.3376 227.118 52.412 226.226 51.7839C225.498 51.288 224.672 51.0235 223.845 51.0235Z"
        fill="#FFC700" />
    <path
        d="M381.755 120.68L380.201 116.614C378.548 116.415 376.894 116.052 375.34 115.49L372.166 118.465L363.57 112.349L365.355 108.382C364.331 107.092 363.438 105.671 362.71 104.15L358.379 104.018L356.627 93.6042L360.694 92.0504C360.892 90.3974 361.256 88.7444 361.818 87.1906L358.842 84.0169L364.959 75.4215L368.926 77.2067C370.216 76.1818 371.637 75.2892 373.158 74.5619L373.291 70.2312L383.705 68.479L385.259 72.5453C386.912 72.7437 388.566 73.1073 390.119 73.6693L393.293 70.694L401.89 76.81L400.104 80.7771C401.129 82.0664 402.022 83.488 402.749 85.0087L407.081 85.141L408.833 95.5547L404.766 97.1085C404.568 98.7614 404.204 100.414 403.642 101.968L406.618 105.142L400.501 113.737L396.534 111.952C395.244 112.977 393.822 113.87 392.302 114.597L392.169 118.928L381.755 120.68ZM374.878 113.374L375.407 113.572C377.159 114.233 379.01 114.663 380.895 114.828L381.49 114.894L382.912 118.597L390.318 117.341L390.45 113.374L390.979 113.142C392.698 112.382 394.318 111.357 395.773 110.134L396.203 109.77L399.84 111.39L404.204 105.274L401.493 102.365L401.691 101.836C402.353 100.084 402.782 98.2325 402.948 96.3481L402.981 95.753L406.684 94.3315L405.427 86.9262L401.46 86.7939L401.229 86.265C400.468 84.5459 399.443 82.926 398.22 81.4714L397.856 81.0416L399.476 77.4051L393.36 73.0412L390.45 75.7521L389.921 75.5537C388.169 74.8925 386.317 74.4628 384.433 74.2975L383.838 74.2644L382.416 70.5617L375.01 71.818L374.878 75.7851L374.349 76.0166C372.629 76.7769 371.009 77.8018 369.554 79.025L369.125 79.3886L365.488 77.7687L361.19 83.8847L363.901 86.7939L363.702 87.3229C363.041 89.075 362.611 90.9264 362.446 92.8107L362.413 93.4058L358.71 94.8274L359.966 102.233L363.934 102.365L364.165 102.894C364.926 104.613 365.951 106.233 367.174 107.687L367.538 108.117L365.918 111.754L372.034 116.118L374.878 113.374ZM382.68 106.563C380.267 106.563 377.853 105.836 375.737 104.348C370.348 100.514 369.092 93.0091 372.927 87.6204C376.762 82.2317 384.267 80.9755 389.657 84.8104C395.046 88.6453 396.302 96.1497 392.467 101.538C390.119 104.811 386.416 106.563 382.68 106.563ZM382.713 84.4467C379.539 84.4467 376.398 85.9344 374.448 88.7114C372.861 90.9264 372.266 93.6042 372.695 96.282C373.158 98.9598 374.613 101.274 376.828 102.861C381.391 106.101 387.739 105.043 390.979 100.481C392.533 98.2656 393.161 95.5877 392.731 92.9099C392.269 90.2321 390.814 87.9179 388.599 86.3311C386.78 85.0418 384.73 84.4467 382.713 84.4467Z"
        fill="#FFC700" />
    <path
        d="M220.773 195.063C219.186 190.6 217.368 185.575 219.385 180.418C222.096 173.476 216.343 169.905 211.284 166.698C206.92 163.988 202.82 161.409 204.209 157.144C205.73 152.516 205.631 148.946 203.911 146.598C202.456 144.615 199.878 143.557 196.439 143.59C193.695 143.623 191.248 140.251 188.636 136.714C185.561 132.548 182.421 128.25 178.453 129.209C177.759 129.374 177.197 129.771 176.866 130.399C175.477 133.011 177.66 139.226 180.007 145.838C182.52 152.979 185.396 161.045 183.512 164.483C181.462 168.252 185.165 171.69 189.099 175.36C193.265 179.228 197.993 183.625 196.737 189.146C195.546 194.303 195.282 196.221 196.009 197.345C196.571 198.237 197.729 198.435 199.481 198.766C200.671 198.998 202.192 199.262 204.044 199.857C212.012 202.337 214.326 207.494 214.359 207.56L214.458 207.791L214.69 207.758C218.525 207.163 220.773 206.072 221.831 204.32C221.897 204.221 221.93 204.122 221.997 204.023C223.121 201.675 222.03 198.601 220.773 195.063Z"
        fill="#FFB750" />
    <path
        d="M200.405 185.212C201.727 187.261 202.686 189.047 202.587 191.559C202.521 193.906 202.157 196.22 201.959 198.535C201.926 199.03 201.893 199.493 201.859 199.956C201.198 199.394 200.57 198.832 199.909 198.27C199.611 198.237 199.314 198.237 198.983 198.237C199.909 198.997 200.868 199.824 201.793 200.65C201.694 202.27 201.661 203.89 201.661 205.51C201.661 206.469 201.628 207.494 201.694 208.452C200.835 207.923 199.942 207.394 199.115 206.866C196.536 205.279 194.123 203.791 192.271 202.998C190.85 202.403 189.263 201.874 187.742 201.378C183.774 200.088 179.708 198.766 178.352 195.956C177.658 194.501 177.724 192.749 178.55 190.633C180.633 185.179 178.683 184.253 175.409 182.666C173.029 181.509 169.789 179.955 166.549 176.021C165.127 174.302 163.87 172.814 162.746 171.525C159.407 167.591 157.556 165.442 157.787 164.186C157.853 163.888 158.018 163.624 158.349 163.359C158.514 163.227 158.713 163.095 158.977 162.963C160.234 162.268 161.49 162.797 162.912 163.392C164.829 164.186 167.177 165.211 170.45 163.525C173.029 162.202 175.905 160.979 177.625 161.971C178.815 162.632 179.509 164.351 179.741 167.161C179.807 168.054 180.104 168.682 180.6 169.046C181.328 169.574 182.452 169.508 183.741 169.244C184.634 170.467 185.791 171.062 187.18 171.558C189.13 172.252 190.585 172.88 192.007 174.467C195.049 177.905 197.991 181.41 200.405 185.212Z"
        fill="#2A94F4" />
    <path
        d="M189.858 190.667C187.874 189.344 186.155 186.138 184.501 183.03C182.253 178.798 179.906 174.435 176.699 174.534C171.541 174.666 166.945 168.583 166.879 168.55L166.449 168.881C166.648 169.145 171.276 175.228 176.699 175.096C179.575 175.03 181.856 179.228 184.005 183.328C185.692 186.468 187.444 189.741 189.527 191.163C190.783 191.989 193.098 193.675 195.842 195.824C195.842 195.593 195.842 195.361 195.842 195.13C193.428 193.113 191.279 191.592 189.858 190.667Z"
        fill="white" />
    <path
        d="M364.099 231.627C364.099 231.627 367.074 224.222 361.652 213.709C356.197 203.196 351.799 204.816 364.925 196.717C378.051 188.617 364.991 163.161 376.167 159.921C387.342 156.682 397.029 115.456 405.526 120.713C414.023 125.969 402.683 146.169 408.766 152.252C414.817 158.335 415.643 166.037 403.113 172.286C390.582 178.534 412.007 202.403 395.012 209.676C378.018 216.949 382.911 245.479 364.099 231.627Z"
        fill="#FFB750" />
    <path
        d="M369.287 239.462C369.254 239.363 367.435 229.908 373.221 217.676C379.106 205.212 381.917 191.592 380.759 181.211C380.131 175.591 383.735 173.409 387.207 171.293C390.645 169.211 394.183 167.029 393.984 161.508C393.819 156.516 395.935 144.813 396.001 144.317L396.762 144.449C396.729 144.581 394.579 156.582 394.745 161.475C394.943 167.459 391.207 169.74 387.603 171.922C384.165 174.004 380.958 175.988 381.52 181.112C382.71 191.592 379.867 205.378 373.915 217.973C368.262 229.974 370.014 239.198 370.047 239.297L369.287 239.462Z"
        fill="white" />
    <path
        d="M414.42 178.038C419.148 175.79 424.173 176.815 421.561 181.543C418.949 186.27 415.048 186.634 415.775 190.369C416.503 194.105 418.42 198.171 412.271 200.552C406.121 202.899 403.244 202.502 399.508 209.412C395.739 216.321 394.45 221.445 388.003 219.792C381.555 218.106 386.911 209.61 390.251 206.04C390.251 206.04 394.78 202.205 394.714 195.295C394.648 188.386 391.805 183.757 400.732 184.22C409.659 184.617 411.213 179.559 414.42 178.038Z"
        fill="#0E538C" />
    <path
        d="M386.977 224.618C387.241 223.726 393.457 202.336 398.548 200.022C403.739 197.642 406.55 191.427 407.773 187.956C409.36 183.426 416.138 182.534 416.402 182.501L416.502 183.261C416.435 183.261 409.922 184.121 408.5 188.187C406.979 192.584 404.07 198.336 398.879 200.716C394.118 202.898 387.803 224.618 387.737 224.85L386.977 224.618Z"
        fill="white" />
    <path
        d="M223.218 207.394C213.035 204.849 212.902 199.361 212.77 194.072C212.671 189.741 212.572 185.641 207.05 183.129C199.743 179.79 199.578 173.608 199.413 168.153C199.281 164.087 199.181 160.252 196.14 158.169C188.833 153.177 182.65 141.077 182.584 140.945L183.146 140.647C183.212 140.78 189.296 152.714 196.503 157.64C199.81 159.888 199.942 163.888 200.041 168.12C200.206 173.641 200.372 179.393 207.315 182.534C213.167 185.212 213.299 189.708 213.398 194.038C213.531 199.328 213.663 204.353 223.383 206.766L223.218 207.394Z"
        fill="white" />
    <path
        d="M209.496 202.502H376.76V81.7688C376.76 80.0497 375.371 78.6282 373.619 78.6282H212.637C210.918 78.6282 209.496 80.0167 209.496 81.7688V202.502Z"
        fill="#F7F7F7" />
    <path d="M215.403 179.993L370.533 179.993V84.6823L215.403 84.6823V179.993Z" fill="#0B4870" stroke="white"
        stroke-width="0.5" stroke-miterlimit="10" />
    <path d="M376.761 184.617H293.145H209.563L191.246 253.017H293.707H395.044L376.761 184.617Z" fill="#F2F2F2" />
    <path
        d="M215.877 196.617H226.16C226.589 196.617 226.92 196.948 226.821 197.311L225.829 201.774C225.763 202.039 225.498 202.237 225.168 202.237H214.72C214.29 202.237 213.96 201.907 214.059 201.51L215.216 197.047C215.282 196.816 215.547 196.617 215.877 196.617Z"
        fill="#0B4870" stroke="white" stroke-width="0.5" stroke-miterlimit="10" />
    <path d="M230.856 196.617H238.626L237.601 202.27H229.666L230.856 196.617Z" fill="#0B4870" stroke="white"
        stroke-width="0.5" stroke-miterlimit="10" />
    <path d="M242.494 196.617H250.264L249.47 202.27H241.535L242.494 196.617Z" fill="#0B4870" stroke="white"
        stroke-width="0.5" stroke-miterlimit="10" />
    <path d="M254.163 196.617H261.933L261.337 202.27H253.402L254.163 196.617Z" fill="#0B4870" stroke="white"
        stroke-width="0.5" stroke-miterlimit="10" />
    <path d="M265.8 196.617H273.57L273.207 202.27H265.271L265.8 196.617Z" fill="#0B4870" stroke="white"
        stroke-width="0.5" stroke-miterlimit="10" />
    <path d="M277.438 196.617H285.208L285.076 202.27H277.141L277.438 196.617Z" fill="#0B4870" stroke="white"
        stroke-width="0.5" stroke-miterlimit="10" />
    <path d="M370.677 196.617H359.006L360.262 202.27H372.132L370.677 196.617Z" fill="#0B4870" stroke="white"
        stroke-width="0.5" stroke-miterlimit="10" />
    <path d="M355.135 196.617H347.365L348.39 202.27H356.325L355.135 196.617Z" fill="#0B4870" stroke="white"
        stroke-width="0.5" stroke-miterlimit="10" />
    <path d="M343.498 196.617H335.729L336.522 202.27H344.457L343.498 196.617Z" fill="#0B4870" stroke="white"
        stroke-width="0.5" stroke-miterlimit="10" />
    <path d="M331.826 196.617H324.057L324.652 202.27H332.587L331.826 196.617Z" fill="#0B4870" stroke="white"
        stroke-width="0.5" stroke-miterlimit="10" />
    <path d="M320.19 196.617H312.42L312.784 202.27H320.719L320.19 196.617Z" fill="#0B4870" stroke="white"
        stroke-width="0.5" stroke-miterlimit="10" />
    <path d="M308.553 196.617H300.783L300.915 202.27H308.85L308.553 196.617Z" fill="#0B4870" stroke="white"
        stroke-width="0.5" stroke-miterlimit="10" />
    <path d="M289.111 196.617H296.881L296.98 202.27H289.111V196.617Z" fill="#0B4870" stroke="white" stroke-width="0.5"
        stroke-miterlimit="10" />
    <path d="M212.471 206.469H228.672L227.746 212.287H211.215L212.471 206.469Z" fill="#0B4870" stroke="white"
        stroke-width="0.5" stroke-miterlimit="10" />
    <path d="M373.19 206.469H353.154L354.278 212.287H374.744L373.19 206.469Z" fill="#0B4870" stroke="white"
        stroke-width="0.5" stroke-miterlimit="10" />
    <path d="M349.12 206.469H341.119L342.012 212.287H350.211L349.12 206.469Z" fill="#0B4870" stroke="white"
        stroke-width="0.5" stroke-miterlimit="10" />
    <path d="M337.083 206.469H329.082L329.743 212.287H337.943L337.083 206.469Z" fill="#0B4870" stroke="white"
        stroke-width="0.5" stroke-miterlimit="10" />
    <path d="M325.05 206.469H317.049L317.512 212.287H325.678L325.05 206.469Z" fill="#0B4870" stroke="white"
        stroke-width="0.5" stroke-miterlimit="10" />
    <path d="M313.017 206.469H305.016L305.247 212.287H313.413L313.017 206.469Z" fill="#0B4870" stroke="white"
        stroke-width="0.5" stroke-miterlimit="10" />
    <path d="M210.025 216.816H226.622L225.399 222.602H208.504L210.025 216.816Z" fill="#0B4870" stroke="white"
        stroke-width="0.5" stroke-miterlimit="10" />
    <path d="M230.759 216.816H239.058L238.099 222.602H229.635L230.759 216.816Z" fill="#0B4870" stroke="white"
        stroke-width="0.5" stroke-miterlimit="10" />
    <path d="M243.221 216.816H251.519H305.412L305.643 222.602H242.295L243.221 216.816Z" fill="#0B4870" stroke="white"
        stroke-width="0.5" stroke-miterlimit="10" />
    <path d="M309.578 216.816H317.877L318.34 222.602H309.876L309.578 216.816Z" fill="#0B4870" stroke="white"
        stroke-width="0.5" stroke-miterlimit="10" />
    <path d="M322.008 216.816H330.307L331.001 222.602H322.537L322.008 216.816Z" fill="#0B4870" stroke="white"
        stroke-width="0.5" stroke-miterlimit="10" />
    <path d="M334.475 216.816H342.773L343.666 222.602H335.235L334.475 216.816Z" fill="#0B4870" stroke="white"
        stroke-width="0.5" stroke-miterlimit="10" />
    <path d="M346.904 216.816H355.203L356.327 222.602H347.896L346.904 216.816Z" fill="#0B4870" stroke="white"
        stroke-width="0.5" stroke-miterlimit="10" />
    <path d="M359.336 216.816H375.933L377.454 222.602H360.559L359.336 216.816Z" fill="#0B4870" stroke="white"
        stroke-width="0.5" stroke-miterlimit="10" />
    <path d="M301.015 206.469H293.047V212.287H301.147L301.015 206.469Z" fill="#0B4870" stroke="white" stroke-width="0.5"
        stroke-miterlimit="10" />
    <path d="M288.979 206.469H280.944L280.713 212.287H288.912L288.979 206.469Z" fill="#0B4870" stroke="white"
        stroke-width="0.5" stroke-miterlimit="10" />
    <path d="M276.944 206.469H268.91L268.447 212.287H276.647L276.944 206.469Z" fill="#0B4870" stroke="white"
        stroke-width="0.5" stroke-miterlimit="10" />
    <path d="M264.908 206.469H256.874L256.18 212.287H264.379L264.908 206.469Z" fill="#0B4870" stroke="white"
        stroke-width="0.5" stroke-miterlimit="10" />
    <path d="M252.874 206.469H244.84L243.914 212.287H252.114L252.874 206.469Z" fill="#0B4870" stroke="white"
        stroke-width="0.5" stroke-miterlimit="10" />
    <path d="M240.84 206.469H232.806L231.682 212.287H239.848L240.84 206.469Z" fill="#0B4870" stroke="white"
        stroke-width="0.5" stroke-miterlimit="10" />
    <path d="M216.244 193.08L217.567 188.055H221.336L220.112 193.08H216.244Z" fill="#0B4870" stroke="white"
        stroke-width="0.5" stroke-miterlimit="10" />
    <path d="M225.1 188.055H232.639L231.614 193.08H223.91L225.1 188.055Z" fill="#0B4870" stroke="white"
        stroke-width="0.5" stroke-miterlimit="10" />
    <path d="M236.443 188.055H243.981L243.122 193.08H235.451L236.443 188.055Z" fill="#0B4870" stroke="white"
        stroke-width="0.5" stroke-miterlimit="10" />
    <path d="M247.751 188.055H255.289L254.628 193.08H246.957L247.751 188.055Z" fill="#0B4870" stroke="white"
        stroke-width="0.5" stroke-miterlimit="10" />
    <path d="M259.06 188.055H266.598L266.135 193.08H258.465L259.06 188.055Z" fill="#0B4870" stroke="white"
        stroke-width="0.5" stroke-miterlimit="10" />
    <path d="M270.366 188.055H277.904L277.639 193.08H269.969L270.366 188.055Z" fill="#0B4870" stroke="white"
        stroke-width="0.5" stroke-miterlimit="10" />
    <path d="M281.673 188.055H289.211L289.145 193.08H281.475L281.673 188.055Z" fill="#0B4870" stroke="white"
        stroke-width="0.5" stroke-miterlimit="10" />
    <path d="M292.98 188.055H300.519L300.651 193.08H292.98V188.055Z" fill="#0B4870" stroke="white" stroke-width="0.5"
        stroke-miterlimit="10" />
    <path d="M304.287 188.055H311.825L312.156 193.08H304.485L304.287 188.055Z" fill="#0B4870" stroke="white"
        stroke-width="0.5" stroke-miterlimit="10" />
    <path d="M315.596 188.055H323.167L323.663 193.08H315.992L315.596 188.055Z" fill="#0B4870" stroke="white"
        stroke-width="0.5" stroke-miterlimit="10" />
    <path d="M326.936 188.055H334.474L335.201 193.08H327.531L326.936 188.055Z" fill="#0B4870" stroke="white"
        stroke-width="0.5" stroke-miterlimit="10" />
    <path d="M338.24 188.055H345.779L346.704 193.08H339.034L338.24 188.055Z" fill="#0B4870" stroke="white"
        stroke-width="0.5" stroke-miterlimit="10" />
    <path d="M349.549 188.055H357.087L358.211 193.08H350.541L349.549 188.055Z" fill="#0B4870" stroke="white"
        stroke-width="0.5" stroke-miterlimit="10" />
    <path d="M360.857 188.055H368.396L369.718 193.08H362.048L360.857 188.055Z" fill="#0B4870" stroke="white"
        stroke-width="0.5" stroke-miterlimit="10" />
    <path
        d="M389.721 258.339H196.569C193.627 258.339 191.246 255.959 191.246 253.017H395.044C395.044 255.959 392.664 258.339 389.721 258.339Z"
        fill="#D3D3D3" />
    <path
        d="M316.85 230.9C316.651 229.71 315.593 228.817 314.403 228.817H293.177H271.918C270.694 228.817 269.669 229.71 269.471 230.9L266.826 246.934C266.562 248.454 267.752 249.843 269.273 249.843H293.144H317.015C318.569 249.843 319.726 248.454 319.462 246.934L316.85 230.9Z"
        fill="#D3D3D3" />
    <path d="M243.153 92.7776H225.861V94.5628H243.153V92.7776Z" fill="#F7F7F7" />
    <path d="M260.476 106.101H248.012V107.886H260.476V106.101Z" fill="#F7F7F7" />
    <path d="M270.695 106.101H262.43V107.886H270.695V106.101Z" fill="#F7F7F7" />
    <path d="M234.324 139.623H226.059V141.408H234.324V139.623Z" fill="#F7F7F7" />
    <path d="M292.351 106.101H272.348V107.886H292.351V106.101Z" fill="#F7F7F7" />
    <path d="M238.92 132.912H226.059V134.697H238.92V132.912Z" fill="#F7F7F7" />
    <path d="M251.816 146.268H243.98V148.053H251.816V146.268Z" fill="#F7F7F7" />
    <path d="M241.598 146.268H226.059V148.053H241.598V146.268Z" fill="#F7F7F7" />
    <path d="M234.622 152.946H226.059V154.731H234.622V152.946Z" fill="#F7F7F7" />
    <path d="M258.792 92.7776H246.525V94.5628H258.792V92.7776Z" fill="#F7F7F7" />
    <path d="M258.792 112.779H246.525V114.564H258.792V112.779Z" fill="#F7F7F7" />
    <path d="M245.634 119.423H240.377V121.209H245.634V119.423Z" fill="#F7F7F7" />
    <path d="M246.925 126.201H235.154V127.986H246.925V126.201Z" fill="#F7F7F7" />
    <path d="M264.974 126.201H248.707V127.986H264.974V126.201Z" fill="#F7F7F7" />
    <path d="M238.325 119.49H226.059V121.275H238.325V119.49Z" fill="#F7F7F7" />
    <path d="M233.332 126.201H226.059V127.986H233.332V126.201Z" fill="#F7F7F7" />
    <path d="M254.988 119.49H248.111V121.275H254.988V119.49Z" fill="#F7F7F7" />
    <path d="M233.168 159.591H226.291V161.376H233.168V159.591Z" fill="#F7F7F7" />
    <path d="M238.292 106.101H226.025V107.886H238.292V106.101Z" fill="#F7F7F7" />
    <path d="M249.139 139.623H236.873V141.408H249.139V139.623Z" fill="#F7F7F7" />
    <path d="M249.301 152.946H237.035V154.731H249.301V152.946Z" fill="#F7F7F7" />
    <path d="M271.089 152.946H258.822V154.731H271.089V152.946Z" fill="#F7F7F7" />
    <path d="M243.516 112.779H226.025V114.564H243.516V112.779Z" fill="#F7F7F7" />
    <path d="M320.256 92.7776H307.99V94.5628H320.256V92.7776Z" fill="#F7F7F7" />
    <path d="M276.546 159.591H264.279V161.376H276.546V159.591Z" fill="#F7F7F7" />
    <path d="M332.258 92.7776H324.059V94.5628H332.258V92.7776Z" fill="#F7F7F7" />
    <path d="M360.065 99.4556H351.865V101.241H360.065V99.4556Z" fill="#F7F7F7" />
    <path d="M277.738 92.7776H262.1V94.5628H277.738V92.7776Z" fill="#F7F7F7" />
    <path d="M338.637 99.4556H322.998V101.241H338.637V99.4556Z" fill="#F7F7F7" />
    <path d="M319.463 106.101H303.824V107.886H319.463V106.101Z" fill="#F7F7F7" />
    <path d="M299.125 112.779H283.486V114.564H299.125V112.779Z" fill="#F7F7F7" />
    <path d="M332.523 106.101H321.414V107.886H332.523V106.101Z" fill="#F7F7F7" />
    <path d="M304.916 92.7776H289.277V94.5628H304.916V92.7776Z" fill="#F7F7F7" />
    <path d="M280.613 112.779H271.455V114.564H280.613V112.779Z" fill="#F7F7F7" />
    <path d="M273.438 139.722H264.279V141.507H273.438V139.722Z" fill="#F7F7F7" />
    <path d="M286.333 92.7776H280.613V94.5628H286.333V92.7776Z" fill="#F7F7F7" />
    <path d="M267.819 112.779H262.1V114.564H267.819V112.779Z" fill="#F7F7F7" />
    <path d="M348.128 99.4556H342.408V101.241H348.128V99.4556Z" fill="#F7F7F7" />
    <path d="M234.821 99.4556H225.861V101.241H234.821V99.4556Z" fill="#F7F7F7" />
    <path d="M256.841 132.945H249.766V134.73H256.841V132.945Z" fill="#F7F7F7" />
    <path d="M239.912 99.4556H237.035V101.241H239.912V99.4556Z" fill="#F7F7F7" />
    <path d="M320.254 99.4556H296.35V101.241H320.254V99.4556Z" fill="#F7F7F7" />
    <path d="M297.344 152.946H273.439V154.731H297.344V152.946Z" fill="#F7F7F7" />
    <path d="M244.972 99.4556H242.029V101.241H244.972V99.4556Z" fill="#F7F7F7" />
    <path d="M294.139 99.4556H286.336V101.241H294.139V99.4556Z" fill="#F7F7F7" />
    <path d="M301.971 106.101H294.168V107.886H301.971V106.101Z" fill="#F7F7F7" />
    <path d="M261.766 159.591H253.963V161.376H261.766V159.591Z" fill="#F7F7F7" />
    <path d="M284.285 99.4556H267.654V101.241H284.285V99.4556Z" fill="#F7F7F7" />
    <path d="M261.869 139.722H252.148V141.507H261.869V139.722Z" fill="#F7F7F7" />
    <path d="M256.411 152.946H251.551V154.731H256.411V152.946Z" fill="#F7F7F7" />
    <path d="M265.273 99.4556H259.553V101.241H265.273V99.4556Z" fill="#F7F7F7" />
    <path d="M246.028 106.1H240.309V107.886H246.028V106.1Z" fill="#F7F7F7" />
    <path d="M247.153 132.945H241.434V134.73H247.153V132.945Z" fill="#F7F7F7" />
    <path d="M257.407 99.4556H247.422V101.241H257.407V99.4556Z" fill="#F7F7F7" />
    <path
        d="M331.133 112.845C331.133 112.845 334.042 117.771 335.266 118.564C336.919 119.655 335.894 120.746 335.1 120.779C334.307 120.779 330.273 121.076 329.381 120.052C328.488 119.027 328.058 116.018 327.231 115.225C326.405 114.432 325.545 111.291 327.628 110.531C329.447 109.836 331.133 112.845 331.133 112.845Z"
        fill="#FFB750" />
    <path
        d="M329.845 110.696C329.845 110.696 333.184 116.481 333.746 117.308C334.309 118.167 332.655 118.167 331.63 117.771C330.606 117.374 328.027 113.242 327.663 112.481C327.233 111.589 327.597 110.564 327.597 110.564L329.845 110.696Z"
        fill="#FFE3CA" />
    <path d="M326.473 113.77L327.266 119.688L327.663 119.721L327.531 115.456L326.473 113.77Z" fill="#FFB750" />
    <path
        d="M302.271 112.845C302.271 112.845 305.181 117.771 306.404 118.564C308.057 119.655 307.032 120.746 306.239 120.779C305.445 120.779 301.412 121.077 300.519 120.052C299.626 119.027 299.196 116.019 298.37 115.225C297.543 114.432 296.65 111.192 298.766 110.531C300.618 109.936 302.271 112.845 302.271 112.845Z"
        fill="#FFB750" />
    <path
        d="M301.178 110.696C301.178 110.696 304.319 116.448 304.914 117.308C305.477 118.167 303.823 118.167 302.798 117.771C301.773 117.374 299.195 113.242 298.831 112.481C298.401 111.589 298.765 110.564 298.765 110.564L301.178 110.696Z"
        fill="#FFE3CA" />
    <path d="M297.641 113.77L298.401 119.688L298.831 119.721L298.699 115.456L297.641 113.77Z" fill="#FFB750" />
    <path
        d="M289.375 67.983L315.693 79.9835C315.693 79.9835 318.635 80.9423 318.966 84.2152C319.991 94.3975 327.595 110.53 327.595 110.53C330.042 111.721 329.844 110.696 329.844 110.696C328.29 105.737 326.438 85.3722 325.744 77.2065C325.612 75.4875 325.513 74.2973 325.479 73.9006C325.479 73.6361 325.182 73.3055 324.686 72.9088C321.082 69.9665 306.204 63.9167 306.204 63.9167C295.128 63.6191 289.375 67.983 289.375 67.983Z"
        fill="#FFE3CA" />
    <path
        d="M284.417 73.1404C285.244 80.2482 295.394 79.4548 295.394 79.4548H307.693C307.693 79.4548 304.453 86.6618 303.197 92.7116C301.874 99.1582 298.733 110.531 298.733 110.531C298.733 110.531 298.932 110.927 301.18 110.696C301.18 110.696 310.834 91.4554 314.537 86.5956C315.331 85.5708 317.612 79.8846 318.009 76.5125C318.141 75.3885 318.075 74.4959 317.645 74.1322C317.215 73.7686 316.223 73.1074 314.934 72.2809C311.066 69.8345 304.387 66.0988 300.651 65.2723C295.658 64.1483 287.756 62.0325 287.756 62.0325C287.756 62.0325 283.591 66.0327 284.417 73.1404Z"
        fill="#FFE3CA" />
    <path
        d="M292.78 18.3276C292.78 18.3276 290.929 14.8233 291.821 11.1206C292.714 7.38489 296.186 3.68224 301.244 5.40133C306.303 7.12042 310.403 11.0214 307.361 15.5836C304.319 20.1128 310.105 22.1955 308.617 24.3444C307.129 26.4932 307.691 28.7743 308.32 29.2702C308.948 29.7661 310.965 31.5513 310.733 33.7002C310.502 35.816 300.914 27.5181 300.914 27.5181C300.914 27.5181 295.723 16.9721 292.78 18.3276Z"
        fill="#0E538C" />
    <path
        d="M308.22 63.0244C308.22 63.0244 307.459 66.7271 287.787 62.0657C287.787 62.0657 294.367 59.8838 308.22 63.0244Z"
        fill="#EB4747" />
    <path
        d="M287.557 63.09C287.26 63.6851 286.962 64.2471 286.631 64.8422C293.806 65.0406 301.014 65.272 308.188 65.4703C307.064 61.6685 307.428 56.5112 307.626 52.6102C307.858 47.8166 310.503 44.5106 310.238 39.684C311.66 39.9154 311.891 39.9484 313.313 40.1799C311.131 33.9647 310.404 30.8902 303.626 28.5099C301.41 27.7165 299.989 27.5842 297.608 27.7826C289.772 28.4438 287.425 28.5099 283.557 35.6177C289.574 36.5764 288.582 38.7252 290.401 44.7421C291.293 47.6513 292.219 50.9242 291.756 53.9987C291.293 57.0071 287.557 60.3461 287.557 63.09Z"
        fill="white" />
    <path
        d="M300.057 29.9974C296.85 29.4024 297.544 27.6171 297.544 27.6171C297.544 27.6171 297.676 26.6254 297.742 25.336C297.742 25.0054 297.775 24.6749 297.775 24.3112C297.775 23.7822 297.742 23.2533 297.676 22.7243C297.412 20.5755 303.495 21.8648 303.495 21.8648C303.495 21.8648 303.131 26.2286 303.991 27.518C304.818 28.8403 303.264 30.6256 300.057 29.9974Z"
        fill="#FFE3CA" />
    <path
        d="M293.939 27.6175C293.939 27.6175 300.42 35.0889 302.8 36.808C302.8 36.808 305.544 34.3286 303.858 27.7828C303.858 27.7828 300.75 26.1959 293.939 27.6175Z"
        fill="#FFE3CA" />
    <path
        d="M294.136 9.6329C294.136 9.6329 290.763 16.1125 294.103 22.2285C297.442 28.3445 303.988 19.5507 304.385 18.5259C304.815 17.501 307.063 11.6495 302.6 9.89737C298.136 8.11217 295.094 7.88075 294.136 9.6329Z"
        fill="#FFE3CA" />
    <path
        d="M300.617 22.8901C300.617 22.8901 300.022 24.1795 297.74 25.3365C297.74 25.0059 297.773 24.6753 297.773 24.3117C297.773 24.3117 299.327 24.1464 300.617 22.8901Z"
        fill="#FCD2B1" />
    <path
        d="M266.662 57.2718C266.662 57.2718 265.075 57.9661 264.314 57.6685C263.554 57.3379 262.397 57.2718 262.033 57.2718C261.537 57.2718 259.983 56.7098 260.016 57.3379C260.049 57.933 262.529 58.3628 263.025 58.5611C263.521 58.7595 261.504 59.8505 261.306 60.3463C261.107 60.8422 263.422 64.0821 264.711 63.1564C266 62.2307 266.695 60.3794 266.959 60.2472C267.224 60.1149 267.918 59.619 267.918 59.619L266.662 57.2718Z"
        fill="#FFE3CA" />
    <path
        d="M261.571 60.0486C261.571 60.0486 257.835 63.1562 257.768 63.5859C257.702 64.0157 257.901 64.2141 258.264 63.9165C258.628 63.6521 261.967 61.0073 261.967 61.0073C261.967 61.0073 258.231 65.4373 258.099 65.7679C258.033 65.9662 258.397 66.3629 258.595 66.2307C258.793 66.0985 262.794 61.933 262.794 61.933C262.794 61.933 259.289 66.0654 259.289 66.396C259.256 66.6605 259.686 66.958 259.984 66.6605C260.281 66.3629 263.753 62.7264 263.753 62.7264C263.753 62.7264 261.405 65.9001 261.571 66.1976C261.67 66.3629 261.967 66.7266 262.529 65.9001C263.092 65.0736 264.679 63.2223 264.679 63.2223L261.571 60.0486Z"
        fill="#FFE3CA" />
    <path
        d="M306.404 79.4217H295.394C295.394 79.4217 285.244 80.2482 284.417 73.1074C283.591 65.9996 287.756 62.0325 287.756 62.0325C287.756 62.0325 293.113 63.454 297.807 64.5781C300.155 64.0822 302.965 63.7516 306.272 63.8507C306.272 63.8507 326.109 70.3965 325.514 73.8678C325.514 73.9008 317.215 69.4708 306.404 79.4217Z"
        fill="#0E538C" />
    <path d="M299.229 67.1236L320.256 66.793L309.643 72.1817L299.229 67.1236Z" fill="#F2F2F2" />
    <path
        d="M305.773 64.4125C305.773 64.4125 301.045 66.2308 295.259 64.5778L294.994 62.429L306.93 63.0901L305.773 64.4125Z"
        fill="white" />
    <path d="M309.643 72.1814L299.229 68.1481V67.1233L310.47 71.1565L309.643 72.1814Z" fill="#D3D3D3" />
    <path
        d="M305.676 65.4373C305.61 66.1977 306.403 66.7597 307.131 66.4621L308.354 65.9332C308.718 65.7679 308.949 65.4042 308.883 65.0075C308.387 61.8338 307.296 49.4696 308.883 47.3207C309.478 46.5273 309.842 45.8331 310.04 45.238C311.098 47.9489 312.388 51.4532 312.917 53.3376L322.835 66.5613L326.175 67.4209C322.009 57.4039 318.67 52.1144 318.67 52.1144C318.008 50.3622 316.157 45.0727 314.504 40.3783C313.446 37.4029 312.52 34.659 311.991 33.2044C311.726 32.444 311.23 31.8159 310.536 31.4192C308.982 30.4935 306.436 29.0389 304.122 27.9149H304.089C304.023 27.8818 303.957 27.8487 303.857 27.8157C308.288 34.4606 306.569 53.3376 305.676 65.4373C305.676 65.4042 305.676 65.4042 305.676 65.4373Z"
        fill="#FFB750" />
    <path
        d="M289.277 28.3444C287.856 28.5759 284.351 31.981 282.499 35.4192C280.383 39.3532 278.201 43.8163 276.581 45.2709C273.606 47.9817 265.241 57.5359 264.844 57.3045C264.679 57.2053 267.125 60.1476 267.456 60.2799C267.621 60.346 281.177 48.5768 282.499 46.7916C283.723 45.1056 287.029 37.9647 288.021 38.13C288.087 38.2953 289.31 40.907 290.434 44.7089C290.468 44.775 290.468 44.8411 290.501 44.9072C291.294 47.552 291.228 50.4612 290.798 53.701C290.467 56.1474 288.649 60.1476 287.558 62.0981C287.426 62.3296 287.459 62.7924 287.591 63.123C287.69 63.3213 287.789 63.4866 287.955 63.5528L291.955 65.0404L292.881 65.371C293.542 65.6355 294.27 65.5033 294.799 65.1065C295.229 64.809 295.559 64.3131 295.625 63.718C296.518 56.9078 297.642 49.9323 298.535 47.3206C302.469 35.8159 297.014 27.1543 297.014 27.1543C297.014 27.1543 290.534 27.8816 289.277 28.3444Z"
        fill="#FFB750" />
    <path d="M309.645 72.1815L315.893 55.1228L336.029 55.4534L330.077 71.1897L309.645 72.1815Z" fill="#FFC700" />
    <path
        d="M322.34 62.6604C321.712 63.8836 321.911 65.2391 322.77 65.6358C323.63 66.0656 324.787 65.4044 325.415 64.1812C326.043 62.958 325.845 61.6025 324.985 61.2058C324.126 60.776 322.935 61.4372 322.34 62.6604Z"
        fill="#F2F0F0" />
    <path
        d="M310.107 30.4273C308.619 28.1792 307.561 26.394 307.428 23.1872C307.329 21.0714 306.866 18.1953 305.412 16.7737C306.932 12.8066 305.147 11.6164 304.42 10.3271C303.527 8.70721 296.914 4.80619 294.303 8.90556C291.691 12.9719 292.616 17.2365 292.616 17.2365C292.881 14.9885 295.195 11.947 295.195 11.947C295.559 14.2943 300.419 18.1291 302.535 19.6829C302.502 19.716 302.469 19.7821 302.469 19.8152C301.279 21.5343 302.767 23.2534 303.031 25.0716C303.296 26.8899 298.039 31.7827 303.891 34.2291C309.743 36.7085 311.594 32.6422 310.107 30.4273Z"
        fill="#0E538C" />
    <path
        d="M203.676 222.999C203.676 222.999 203.544 224.387 197.063 224.387C190.583 224.387 181.16 222.701 181.16 222.701L196.204 221.247C196.204 221.247 201.99 220.949 203.676 222.999Z"
        fill="#0E538C" />
    <path
        d="M187.179 223.494C183.509 223.494 181.955 225.379 180.5 225.974C179.045 226.569 177.591 227.461 177.591 227.428C178.417 225.809 179.574 225.775 180.169 225.246C180.765 224.718 180.599 224.982 179.31 224.883C178.582 224.817 177.26 226.172 176.334 226.933C175.508 227.561 175.012 227.627 175.012 227.627C175.012 227.627 175.971 226.271 177.161 225.18C178.616 223.858 180.434 222.767 180.864 222.569C181.657 222.238 184.104 222.172 185.823 222.403C187.807 222.668 189.824 223.494 187.179 223.494Z"
        fill="#0E538C" />
    <path
        d="M181.096 222.635C181.096 222.635 178.285 223.363 177.789 223.759C177.459 224.024 176.004 225.578 176.004 225.578C176.004 225.578 177.062 225.412 177.657 224.817C178.285 224.189 181.096 222.635 181.096 222.635Z"
        fill="#0E538C" />
    <path
        d="M198.355 220.156C198.355 220.156 205.43 220.618 204.934 224.982C204.67 227.462 203.05 228.321 200.901 228.123C196.933 227.792 192.437 227.197 192.437 227.197L190.42 220.42L198.355 220.156Z"
        fill="#0E538C" />
    <path
        d="M199.84 220.75L206.783 198.369C206.783 198.369 207.808 195.096 209.494 195.691C211.908 196.584 210.718 199.262 210.519 200.849C210.089 204.089 210.387 205.51 208.139 213.312C206.75 218.139 205.56 223.693 204.37 226.866C203.543 229.048 202.121 225.908 199.972 225.048C195.939 223.428 199.84 220.75 199.84 220.75Z"
        fill="#0E538C" />
    <path
        d="M200.374 186.203C201.729 190.104 205.928 192.121 209.796 190.699C213.632 189.278 215.682 184.947 214.326 181.046C212.97 177.145 208.771 175.128 204.903 176.55C201.068 177.971 199.018 182.302 200.374 186.203Z"
        fill="#0E538C" />
    <path
        d="M192.765 186.567C194.881 189.741 199.113 190.534 202.188 188.352L201.758 184.616C204.833 182.401 205.593 178.038 203.477 174.864L202.023 172.715C199.907 169.541 195.675 168.748 192.6 170.93L191.211 171.922C188.136 174.137 187.376 178.5 189.492 181.674L192.765 186.567Z"
        fill="#0E538C" />
    <path
        d="M189.989 176.153C190.352 176.682 190.749 177.178 191.212 177.674C194.254 180.98 198.32 182.236 200.899 180.881C202.09 182.501 203.445 183.79 204.668 184.782C206.09 185.939 209.727 186.402 209.727 186.402C211.843 188.716 203.908 202.237 203.346 202.171C202.189 202.072 200.701 194.6 201.792 191.89C202.288 190.666 203.081 189.212 202.85 188.551C202.023 186.269 200.866 186.666 200.866 186.666C200.866 186.666 199.345 188.451 198.155 188.385C196.932 188.286 194.816 186.369 194.717 186.336C194.353 186.038 194.022 185.674 193.725 185.245L190.551 180.484C189.724 179.162 189.526 177.575 189.989 176.153Z"
        fill="#FFE3CA" />
    <path
        d="M214.257 233.115C214.257 233.115 211.678 236.222 210.884 236.553C209.826 237.016 206.586 236.024 206.586 236.024C206.586 236.024 205.727 221.775 204.735 216.221C203.743 210.667 202.288 209.213 202.222 207.461C202.123 204.651 199.775 203.527 200.172 201.345C200.569 199.163 201.263 191.361 201.495 192.386C203.511 201.245 205.991 193.873 206.553 192.716C206.851 192.088 214.257 233.115 214.257 233.115Z"
        fill="#F2F0F0" />
    <path
        d="M202.521 189.74C202.521 189.74 199.38 193.179 199.611 194.534C199.81 195.889 198.256 200.121 199.81 206.006C201.562 212.717 202.488 217.279 202.818 221.676C203.149 226.073 201.661 230.106 202.256 235.495C202.719 239.726 203.678 239.958 203.678 239.958C203.678 239.958 205.562 240.421 206.885 238.768C208.208 237.148 206.224 222.734 205.562 219.163C204.901 215.56 202.785 207.163 202.223 204.683C201.529 201.642 201.661 198.534 201.694 197.642C201.859 194.501 202.256 192.55 202.587 191.36C202.62 191.195 202.785 189.344 202.521 189.74Z"
        fill="#0E538C" />
    <path
        d="M208.007 193.774C209.727 198.733 215.083 201.279 219.976 199.46C224.869 197.642 227.448 192.154 225.729 187.195C224.01 182.236 218.654 179.691 213.76 181.509C208.867 183.294 206.288 188.815 208.007 193.774Z"
        fill="#0E538C" />
    <path
        d="M191.18 279.001L192.932 292.986L185.328 296.589L181.129 297.515L188.601 291.729L186.154 279.101L191.18 279.001Z"
        fill="#FCBAA2" />
    <path
        d="M193.427 295.101L191.774 295.531L190.65 294.506L184.566 297.548L179.177 298.837C179.177 298.837 179.111 298.407 179.276 298.176C179.938 297.283 183.74 295.333 183.74 295.333C183.74 295.333 183.806 296.622 184.335 296.655C184.864 296.688 189.526 294.242 190.617 293.58C192.468 292.423 192.832 291.663 192.964 291.762C193.361 291.96 193.427 295.101 193.427 295.101Z"
        fill="#0E538C" />
    <path
        d="M172.829 259.562L166.779 271.464L158.447 271.067L154.281 269.844L163.506 268.29L168.531 258.108L172.829 259.562Z"
        fill="#FCBAA2" />
    <path
        d="M166.284 273.58L164.63 273.183L164.101 271.728L156.596 271.629L152.133 270.571C152.133 270.571 152.662 269.976 152.992 269.811C153.984 269.381 157.522 269.183 157.522 269.183C157.522 269.183 157.158 270.207 157.621 270.472C158.084 270.769 163.242 270.935 164.498 270.836C166.68 270.67 167.309 270.207 167.375 270.34C167.606 270.803 166.284 273.58 166.284 273.58Z"
        fill="#0E538C" />
    <path
        d="M216.966 223.958L212.47 225.974L212.503 232.156L181.523 227.098C181.523 227.098 178.581 226.139 176.696 230.999C174.018 237.876 167.207 259.265 167.207 259.265L171.505 263.926L185.028 239.76C185.028 239.76 212.734 253.215 221.86 250.306C225.364 249.182 228.042 242.768 227.546 236.289C227.15 231.198 226.158 226.536 226.158 226.536L216.966 223.958Z"
        fill="#FFB750" />
    <path
        d="M213.034 250.174L190.848 248.521L192.766 283.961L186.22 284.192L181.393 242.669C181.393 242.669 182.682 236.487 186.914 237.413C191.179 238.372 201.429 246.504 213.034 250.174Z"
        fill="#FFB750" />
    <path
        d="M227.978 259.066C227.978 259.066 216.34 246.008 213.331 238.636C209.728 229.809 210.025 218.734 209.364 215.064C208.14 208.32 206.653 195.229 206.388 193.609C206.091 191.989 207.116 190.17 207.116 190.17C207.116 190.17 206.355 185.278 208.537 185.807C211.678 186.567 214.786 188.286 215.877 188.815C217.927 189.741 222.126 214.403 222.357 215.593C223.217 219.891 226.358 223.792 228.606 227.792C233.896 237.28 235.252 248.487 235.252 248.487C235.252 248.487 234.591 256.686 227.978 259.066Z"
        fill="#2A94F4" />
    <path
        d="M215.977 224.916C215.977 224.916 215.877 226.503 208.471 226.139C201.065 225.742 190.221 223.263 190.221 223.263L207.38 222.469C207.38 222.469 213.96 222.503 215.977 224.916Z"
        fill="#FFE3CA" />
    <path
        d="M196.04 224.123C192.502 224.057 190.981 225.875 189.593 226.437C188.204 226.999 186.782 227.825 186.782 227.825C187.576 226.272 188.7 226.239 189.295 225.743C189.857 225.247 189.725 225.511 188.469 225.379C187.741 225.313 186.485 226.602 185.592 227.33C184.799 227.958 184.303 227.991 184.303 227.991C184.303 227.991 185.228 226.668 186.386 225.61C187.807 224.354 189.527 223.296 189.956 223.131C190.717 222.833 193.064 222.8 194.751 223.065C196.635 223.329 198.586 224.189 196.04 224.123Z"
        fill="#FFE3CA" />
    <path
        d="M190.122 223.164C190.122 223.164 187.411 223.825 186.948 224.188C186.617 224.453 185.229 225.941 185.229 225.941C185.229 225.941 186.22 225.775 186.816 225.213C187.411 224.684 190.122 223.164 190.122 223.164Z"
        fill="#FFE3CA" />
    <path
        d="M210.061 223.164L221.037 217.378C221.037 217.378 221.07 224.387 221.137 227.065C221.203 229.743 222.327 233.511 220.211 234.073C218.095 234.635 217.004 234.338 219.186 235.627C221.368 236.883 220.872 238.206 220.045 239.297C219.219 240.388 222.823 251.496 221.963 252.124C218.558 247.826 214.888 242.504 213.301 238.636C211.284 233.611 210.49 227.858 210.061 223.164Z"
        fill="#0E538C" />
    <path
        d="M213.595 220.354L213.165 198.006C213.165 198.006 213.198 191.03 213.33 188.981C213.462 186.865 217.066 189.344 217.066 189.344C217.066 189.344 222.125 196.187 222.224 212.684C222.29 223.726 221.695 229.478 216.603 229.016C211.875 228.586 206.486 227.858 206.486 227.858L204.139 221.742L213.595 220.354Z"
        fill="#2A94F4" />
    <path d="M212.472 232.156L174.682 227.428L174.781 226.635L212.571 231.362L212.472 232.156Z" fill="#D3D3D3" />
    <path
        d="M195.907 229.247C195.841 229.875 195.345 230.338 194.816 230.272L175.442 227.858C174.913 227.792 174.251 227.296 173.789 225.643L166.316 206.304C166.416 205.51 167.044 205.113 167.573 205.312L187.377 208.419C187.906 208.618 188.27 209.081 188.468 209.94L195.907 229.247Z"
        fill="#D3D3D3" />
    <path
        d="M193.462 229.775L193.661 229.808L212.573 232.189C211.845 232.486 210.688 232.585 209.399 232.42L193.562 230.437L193.363 230.404L177.526 228.42C176.237 228.255 175.146 227.858 174.484 227.428L193.462 229.775Z"
        fill="#D3D3D3" />
    <path
        d="M213.596 220.354L213.166 198.006C213.166 198.006 213.497 196.121 214.158 194.435C214.324 196.882 215.448 214.502 215.58 216.817C215.745 219.329 217.795 219.594 218.225 220.42C218.688 221.213 218.291 221.379 216.77 221.081C215.282 220.751 215.811 221.015 216.142 221.809C216.473 222.635 215.646 222.404 212.737 221.346C210.62 220.585 206.554 221.346 204.504 221.809L213.596 220.354Z"
        fill="#0E538C" />
    <path
        d="M344.262 165.508C340.625 166.467 333.914 169.839 332.492 175.624C330.376 184.319 334.608 197.047 327.929 209.543C325.78 213.51 364.86 218.866 364.86 218.866L372.398 174.963C372.398 174.963 362.976 165.442 361.058 164.781C357.057 163.458 351.536 163.591 344.262 165.508Z"
        fill="#CCE9FF" />
    <path
        d="M372.428 174.996C373.784 178.501 377.222 199.361 373.387 204.287C372.957 204.849 375.371 205.741 374.941 208.32C374.875 208.75 374.147 210.833 374.147 210.833L371.04 211.659L364.262 203.824C364.262 203.824 367.006 199.559 370.61 183.393C371.668 178.633 372.131 174.203 372.428 174.996Z"
        fill="#2A94F4" />
    <path
        d="M346.772 199.923C346.772 199.923 350.045 208.552 357.947 210.866C359.303 211.262 360.162 212.783 359.501 213.279C358.641 213.907 357.517 214.039 355.534 214.039C351.401 214.039 345.78 212.717 341.912 208.816C336.159 203.064 334.34 200.419 334.935 197.543C335.464 194.6 346.772 199.923 346.772 199.923Z"
        fill="#FCD2B1" />
    <path
        d="M333.611 172.716C331.925 175.559 330.966 180.121 330.999 186.667C330.999 191.725 335.231 200.023 335.859 202.568C335.958 202.998 336.223 204.816 336.223 204.816L340.885 209.577L350.241 202.998L347.398 198.469L346.538 198.568C346.538 198.568 346.009 196.056 346.142 195.097C346.274 194.138 343.563 181.08 342.207 172.716C341.447 167.856 335.264 169.906 333.611 172.716Z"
        fill="#2A94F4" />
    <path
        d="M342.011 198.369L344.755 197.51L345.879 197.212C345.945 198.006 346.607 198.535 346.607 198.535L344.458 198.799L341.978 199.593L339.068 201.675L342.011 198.369Z"
        fill="#0E538C" />
    <path
        d="M357.352 210.833L362.113 209.477C362.113 209.477 363.469 211.362 363.204 211.825C362.94 212.287 363.204 215.064 363.204 215.064L360.89 217.114L359.005 216.453C359.005 216.453 358.873 215.593 359.501 215.527C360.163 215.428 359.072 214.965 358.741 214.767C358.41 214.535 355.666 213.081 357.352 210.833Z"
        fill="#FCD2B1" />
    <path
        d="M350.013 165.079C349.484 166.633 350.278 168.385 351.799 168.914L354.51 169.906C356.031 170.468 357.684 169.608 358.213 168.054L360.627 160.913C361.156 159.36 360.362 157.607 358.841 157.045L356.13 156.054C354.609 155.492 352.956 156.351 352.427 157.905L350.013 165.079Z"
        fill="#FF957E" />
    <path
        d="M361.849 171.36C361.584 172.385 360.526 173.013 359.534 172.715L351.368 170.368C350.376 170.07 349.781 169.013 350.045 167.955L353.385 155.425C353.649 154.4 354.707 153.772 355.699 154.07L363.865 156.384C364.857 156.681 365.452 157.739 365.188 158.797L361.849 171.36Z"
        fill="#FCD2B1" />
    <path
        d="M366.08 157.541C366.147 157.475 365.32 156.549 365.75 154.731C366.312 152.284 364.493 151.292 363.138 151.259C362.344 151.226 359.666 152.516 358.245 152.945C356.823 153.375 356.955 152.813 354.376 152.35C352.657 152.02 352.26 152.979 351.665 154.301C351.07 155.656 351.004 160.814 351.004 160.814C351.235 161.144 351.599 161.409 351.83 161.144C352.062 160.88 352.988 156.747 353.748 155.524C354.475 154.301 357.451 156.251 359.071 157.21C360.658 158.169 362.08 158.334 364.626 157.805C364.923 158.136 365.188 158.499 365.188 158.665C365.188 158.995 364.46 161.343 364.46 161.343C364.46 161.343 365.882 160.45 366.279 159.756C366.477 159.524 366.543 158.4 366.08 157.541Z"
        fill="#FFBE55" />
    <path
        d="M352.624 165.343C352.525 165.674 352.195 165.905 351.864 165.806L350.112 165.31C349.781 165.211 349.583 164.847 349.682 164.517L350.575 161.178C350.674 160.847 351.004 160.616 351.335 160.715L353.087 161.211C353.418 161.31 353.616 161.674 353.517 162.004L352.624 165.343Z"
        fill="#FCD2B1" />
    <path
        d="M351.533 162.169C351.533 162.169 350.211 167.095 349.781 168.748C349.384 170.236 349.087 173.674 357.187 175.988C361.981 177.343 362.775 173.641 363.105 172.451C363.337 171.525 363.072 168.517 362.709 167.855C362.709 167.822 362.18 169.905 362.18 169.905C362.18 169.905 361.717 167.624 359.435 166.996C355.765 165.938 354.311 167.955 352.724 167.426C351.467 166.996 351.104 164.616 351.533 162.169Z"
        fill="#FFBE55" />
    <path
        d="M357.056 169.74L359.568 170.467C359.899 170.566 360.263 170.368 360.329 170.004L360.428 169.641L356.692 168.583L356.593 168.946C356.527 169.31 356.725 169.641 357.056 169.74Z"
        fill="#FCD2B1" />
    <path
        d="M396.895 219.825C395.738 223.164 375.371 235.429 368.528 234.702L347.929 235.727C330.439 233.512 322.141 205.345 322.141 205.345C322.835 198.27 340.094 208.519 346.243 211.692C355.964 216.717 362.146 216.982 362.146 216.982C368.66 217.676 376.198 212.453 384.431 212.287C393.457 212.056 398.747 214.569 396.895 219.825Z"
        fill="#0B4870" />
    <path
        d="M352.131 216.453C352.131 216.42 352.131 216.42 352.131 216.453V215.527L387.541 214.866V215.759V215.792L387.442 215.957C387.012 216.75 386.185 216.883 385.26 216.916L354.445 217.511C353.519 217.544 352.693 217.411 352.23 216.651L352.131 216.453Z"
        fill="#D3D3D3" />
    <path
        d="M360.66 216.42C360.66 216.42 360.66 216.453 360.66 216.42L360.561 216.585C360.429 216.784 360.263 216.949 360.065 217.048L354.676 217.147C353.783 217.181 352.99 217.081 352.527 216.453L352.428 216.321C352.428 216.321 352.428 216.321 352.395 216.288V215.858L360.594 215.693L360.66 216.42Z"
        fill="#D3D3D3" />
    <path d="M365.453 216.089L383.142 215.759V215.131L365.42 215.494L365.453 216.089Z" fill="#D3D3D3" />
    <path
        d="M360.857 215.329L365.123 197.213C365.222 196.75 365.685 196.353 366.147 196.32L391.011 195.857C391.473 195.857 391.738 196.221 391.639 196.717L387.374 214.833L360.857 215.329Z"
        fill="#D3D3D3" />
    <path
        d="M344.821 240.388C347.268 240.818 349.152 237.875 349.152 237.875L355.5 232.718L354.145 229.214L341.779 234.966C341.779 234.966 342.341 239.958 344.821 240.388Z"
        fill="#FCD2B1" />
    <path
        d="M349.121 237.677C349.121 237.677 349.121 237.975 348.658 239.33C348.195 240.686 347.6 241.148 347.005 241.347C344.624 242.074 342.938 241.71 337.251 242.834C331.564 243.958 329.845 243.099 328.192 240.388C326.539 237.677 328.258 235.528 331.035 235.33C335.036 235.032 337.284 235.495 339.367 235.165C341.549 234.834 341.682 234.305 342.971 233.479C344.161 232.718 345.285 237.28 344.161 238.338C343.136 239.264 348.294 239.396 349.121 237.677Z"
        fill="#FFB750" />
    <path
        d="M347.931 240.289C345.584 241.016 343.864 240.652 338.178 241.776C332.491 242.9 330.771 242.041 329.118 239.33C328.358 238.074 328.325 236.95 328.755 236.09C327.498 236.983 327.068 238.536 328.193 240.388C329.846 243.099 331.565 243.958 337.252 242.834C342.939 241.71 344.658 242.074 347.005 241.347C347.468 241.214 347.931 240.884 348.328 240.123C348.196 240.189 348.063 240.256 347.931 240.289Z"
        fill="white" />
    <path
        d="M349.116 237.775C349.116 237.71 349.116 237.71 349.116 237.71C349.116 237.742 349.083 237.775 349.051 237.808C349.083 237.775 349.116 237.775 349.116 237.775Z"
        fill="#E9D6B8" />
    <path
        d="M336.856 239.791C336.691 239.857 336.525 239.493 336.459 238.998C336.36 237.973 336.128 236.981 335.798 235.956C335.633 235.46 335.633 235.03 335.831 234.964C336.029 234.898 336.36 235.262 336.492 235.758C336.823 236.75 337.021 237.774 337.12 238.766C337.187 239.262 337.021 239.725 336.856 239.791Z"
        fill="white" />
    <path
        d="M338.606 239.463C338.408 239.496 338.243 239.165 338.176 238.702C338.077 237.743 337.846 236.785 337.515 235.859C337.35 235.396 337.35 235 337.581 234.966C337.78 234.933 338.11 235.297 338.276 235.76C338.573 236.686 338.805 237.644 338.904 238.57C338.937 239.033 338.805 239.429 338.606 239.463Z"
        fill="white" />
    <path
        d="M340.459 239.396C340.26 239.429 340.062 239.066 339.996 238.57C339.831 237.578 339.599 236.619 339.235 235.627C339.07 235.132 339.07 234.735 339.268 234.735C339.5 234.735 339.831 235.099 339.996 235.594C340.36 236.553 340.591 237.545 340.723 238.504C340.789 238.966 340.657 239.363 340.459 239.396Z"
        fill="white" />
    <path
        d="M345.252 231.958C345.252 231.958 388.795 213.412 391.275 213.379C399.673 213.312 397.755 222.106 393.49 226.272C388.465 231.165 350.244 240.124 350.244 240.124L345.252 231.958Z"
        fill="#0E538C" />
    <path d="M362.512 235.198L350.609 223.495L355.701 218.304L368.662 232.454L362.512 235.198Z" fill="#FCD2B1" />
    <path
        d="M364.956 226.007C364.956 226.007 334.704 197.279 332.687 196.419C325.777 193.51 321.512 201.411 321.743 204.155C322.074 207.692 352.789 236.454 352.789 236.454L364.956 226.007Z"
        fill="#0E538C" />
    <path
        d="M382.875 236.09C383.569 236.751 383.701 238.768 383.701 238.768C383.701 238.768 373.617 242.735 370.08 242.801C369.154 242.834 367.501 242.437 365.914 241.975C365.649 241.908 365.021 241.181 364.757 241.115C364.261 240.983 364.161 241.446 363.765 241.313C362.707 240.95 361.913 240.652 361.88 240.586C359.731 235.892 360.458 233.577 360.458 233.577C360.458 233.577 365.087 234.966 364.294 233.875C362.607 231.561 367.468 229.214 368.526 230.437C372.89 235.363 380.825 234.139 382.875 236.09Z"
        fill="#FFB750" />
    <path
        d="M383.438 237.082C380.33 238.371 373.817 240.983 372.527 241.082C367.204 241.479 363.501 239.528 361.021 238.371C361.253 239.032 361.517 239.793 361.881 240.586C361.914 240.652 362.675 240.95 363.766 241.313C364.195 241.446 364.295 240.95 364.758 241.115C365.022 241.181 365.617 241.908 365.915 241.975C367.502 242.437 369.155 242.801 370.081 242.801C373.618 242.735 383.702 238.768 383.702 238.768C383.702 238.768 383.702 237.842 383.438 237.082Z"
        fill="white" />
    <path
        d="M376.333 234.041C376.432 234.239 376.035 234.437 375.473 234.57C374.316 234.801 373.192 235.165 372.067 235.627C371.505 235.859 371.009 235.925 370.943 235.727C370.877 235.528 371.241 235.165 371.803 234.933C372.894 234.47 374.051 234.14 375.175 233.908C375.704 233.743 376.233 233.842 376.333 234.041Z"
        fill="white" />
    <path
        d="M374.05 233.214C374.149 233.412 373.752 233.677 373.19 233.842C372.066 234.173 370.975 234.636 369.884 235.198C369.355 235.462 368.859 235.561 368.793 235.363C368.727 235.164 369.09 234.735 369.619 234.47C370.677 233.941 371.769 233.478 372.893 233.181C373.455 232.95 373.984 233.016 374.05 233.214Z"
        fill="white" />
    <path
        d="M371.868 232.487C371.934 232.685 371.57 232.983 371.041 233.181C369.95 233.611 368.892 234.14 367.867 234.768C367.371 235.098 366.908 235.198 366.842 234.966C366.776 234.768 367.107 234.305 367.636 233.974C368.661 233.346 369.719 232.817 370.777 232.421C371.306 232.255 371.802 232.288 371.868 232.487Z"
        fill="white" />
</svg>
