<svg width="494" height="341" viewBox="0 0 494 341" fill="none" xmlns="http://www.w3.org/2000/svg">
<path opacity="0.3" d="M291.029 43.4211C291.029 43.4211 316.019 22.5911 329.987 21.1033C343.954 19.6154 345.442 31.8219 353.185 32.1255C360.928 32.4292 365.665 13.9677 379.359 10.1114C393.053 6.25512 437.962 42.8441 437.962 42.8441L291.029 43.4211Z" fill="#FFC700"/>
<path opacity="0.3" d="M0.744141 96.2547H125.845C125.845 96.2547 115.551 75.7589 97.6364 76.9431C79.7215 78.1577 78.264 55.9311 54.7014 57.9959C31.1691 60.0607 0.744141 96.2547 0.744141 96.2547Z" fill="#FFC700"/>
<path d="M247.001 340.687C383.171 340.687 493.558 331.238 493.558 319.583C493.558 307.929 383.171 298.48 247.001 298.48C110.831 298.48 0.443359 307.929 0.443359 319.583C0.443359 331.238 110.831 340.687 247.001 340.687Z" fill="#0B4870"/>
<path d="M391.298 313.328H102.717C91.1783 313.328 81.8262 303.976 81.8262 292.438V137.823C81.8262 126.285 91.1783 116.933 102.717 116.933H391.298C402.837 116.933 412.189 126.285 412.189 137.823V292.468C412.189 303.976 402.837 313.328 391.298 313.328Z" fill="#2A94F4"/>
<path d="M387.593 41.0525V155.769H106.117V41.0525C106.117 32.9757 112.888 26.417 121.269 26.417H372.442C380.822 26.417 387.593 32.9757 387.593 41.0525Z" fill="#F2F2F2"/>
<path d="M387.593 155.768V201.891C387.593 209.968 380.822 216.527 372.442 216.527L255.509 259.128C249.952 261.162 243.789 261.162 238.232 259.128L121.269 216.527C112.919 216.527 106.117 209.968 106.117 201.891V155.768H387.593Z" fill="#F7F7F7"/>
<path d="M182.327 280.262H107.327C105.323 280.262 103.684 278.622 103.684 276.618V273.278C103.684 271.274 105.323 269.634 107.327 269.634H182.327C184.331 269.634 185.971 271.274 185.971 273.278V276.618C185.971 278.622 184.331 280.262 182.327 280.262Z" fill="#F7F7F7"/>
<path d="M183.849 186.497H62.9992C60.9951 186.497 59.3555 184.857 59.3555 182.853V123.886C59.3555 121.882 60.9951 120.242 62.9992 120.242H183.849C185.853 120.242 187.492 121.882 187.492 123.886V182.853C187.492 184.857 185.853 186.497 183.849 186.497Z" fill="#FFC700"/>
<path d="M167.211 180.333L187.494 203.865V153.37L167.211 180.333Z" fill="#FFC700"/>
<path d="M174.01 138.704H77.5432C75.7213 138.704 74.2031 137.185 74.2031 135.364V134.088C74.2031 132.266 75.7213 130.748 77.5432 130.748H174.01C175.832 130.748 177.35 132.266 177.35 134.088V135.364C177.35 137.185 175.862 138.704 174.01 138.704Z" fill="#F7F7F7"/>
<path d="M174.01 154.281H77.5432C75.7213 154.281 74.2031 152.762 74.2031 150.941V149.665C74.2031 147.843 75.7213 146.325 77.5432 146.325H174.01C175.832 146.325 177.35 147.843 177.35 149.665V150.941C177.35 152.762 175.862 154.281 174.01 154.281Z" fill="#F7F7F7"/>
<path d="M129.496 169.827H77.5432C75.7213 169.827 74.2031 168.309 74.2031 166.487V165.212C74.2031 163.39 75.7213 161.872 77.5432 161.872H129.496C131.318 161.872 132.837 163.39 132.837 165.212V166.487C132.837 168.339 131.318 169.827 129.496 169.827Z" fill="#F7F7F7"/>
<g filter="url(#filter0_d)">
<path d="M243.513 109.008C273.615 109.008 298.017 84.6053 298.017 54.5038C298.017 24.4022 273.615 0 243.513 0C213.412 0 189.01 24.4022 189.01 54.5038C189.01 84.6053 213.412 109.008 243.513 109.008Z" fill="#FFC700"/>
</g>
<path d="M233.256 84.2305L211.211 63.7346C208.479 61.2144 208.327 56.9634 210.847 54.2306C213.367 51.4978 217.618 51.346 220.351 53.8662L233.347 65.9512L269.662 32.9756C272.425 30.4857 276.676 30.6679 279.166 33.4311C281.656 36.1942 281.474 40.4452 278.711 42.9351L233.256 84.2305Z" fill="#F7F7F7"/>
<path d="M331.203 130.748C331.203 130.748 320.545 149.574 314.26 148.329C305.909 146.659 294.371 144.534 292.246 142.105C290.12 139.676 285.414 134.665 284.503 134.969C283.592 135.273 286.628 139.524 286.325 140.435C286.021 141.346 280.859 141.953 277.519 143.471C275.181 144.534 271.81 146.599 277.519 145.597C284.503 144.382 279.644 147.115 290.272 146.204C294.341 145.87 314.229 158.289 319.118 157.135C324.28 155.92 339.158 135.273 339.158 135.273L331.264 130.718" fill="#EFB68F"/>
<path d="M333.873 302.337C334.207 306.497 334.45 309.776 334.602 311.446C336.606 311.689 338.64 312.023 340.675 312.114L341.737 302.458C339.126 302.397 336.484 302.337 333.873 302.337Z" fill="#EFB68F"/>
<path d="M334.692 312.6C334.692 312.6 313.802 315.849 318.721 317.914C323.64 319.978 339.885 319.341 339.885 319.341L340.674 312.084C338.64 311.992 336.605 311.658 334.601 311.416C334.662 312.205 334.692 312.6 334.692 312.6Z" fill="#0E538C"/>
<path d="M351.909 201.466L355.856 175.657H333.083C333.083 175.657 329.136 245.191 330.047 261.588C330.624 272.033 332.081 291.162 333.053 303.612C336.119 303.612 339.186 303.673 342.253 303.733L346.474 265.201L351.909 201.466Z" fill="#0B4870"/>
<path d="M367.393 312.357C367.393 312.357 352.211 316.608 351.148 320.342H374.832C374.832 320.342 374.529 317.549 374.043 313.237C371.766 312.964 369.519 312.417 367.241 311.871C367.333 312.205 367.393 312.357 367.393 312.357Z" fill="#0E538C"/>
<path d="M364.236 302.094C365.694 306.922 366.848 310.626 367.242 311.901C369.52 312.448 371.767 312.995 374.044 313.268C373.68 310.049 373.255 306.011 372.769 301.638C369.945 301.851 367.091 302.003 364.236 302.094Z" fill="#EFB68F"/>
<path d="M369.975 265.383C369.671 255.667 369.367 174.594 369.367 174.594L338.244 177.479L339.459 190.232L343.406 199.948C343.406 199.948 349.631 252.63 353.882 269.331C356.402 279.26 360.714 293.774 363.78 303.916C367.029 303.824 370.309 303.673 373.527 303.369C371.979 288.642 370.157 270.819 369.975 265.383Z" fill="#0B4870"/>
<path d="M328.527 131.933L336.118 139.524C336.118 139.524 347.657 131.933 346.442 125.556C345.228 119.18 341.918 120.455 339.458 122.216C335.207 125.253 328.527 131.933 328.527 131.933Z" fill="#2A94F4"/>
<path d="M348.266 118.572C348.266 118.572 340.979 123.734 338.246 127.985C335.513 132.236 333.388 148.633 332.78 154.099C332.173 159.564 329.744 178.086 330.048 179.301C330.351 180.516 363.6 184.311 367.244 181.275C370.888 178.238 366.333 167.003 366.333 154.858C366.333 142.712 363.448 136.184 362.841 132.236C362.234 128.289 358.59 118.572 353.428 118.572C348.266 118.572 348.266 118.572 348.266 118.572Z" fill="#2A94F4"/>
<path d="M340.677 98.2285C340.677 98.2285 339.158 115.536 346.142 116.447V121.305C346.142 121.305 349.786 122.52 354.037 121.335L356.162 100.354C356.162 100.354 352.215 96.4066 351.911 96.4066C351.608 96.4066 340.677 98.2285 340.677 98.2285Z" fill="#EFB68F"/>
<path d="M353.122 105.516H351.908C351.908 105.516 353.122 100.658 351.604 100.05C350.086 99.443 342.798 104.605 339.154 100.658C335.511 96.7102 339.458 93.6737 341.584 92.4592C343.709 91.2446 352.211 90.3337 353.729 93.9774C353.729 93.9774 354.337 93.3701 355.855 94.281C357.373 95.192 358.284 112.196 353.122 114.625L353.426 108.552C353.426 108.552 355.339 107.004 354.337 103.998C353.729 102.176 353.122 105.516 353.122 105.516Z" fill="#0B4870"/>
<path d="M360.717 134.605C360.717 134.605 363.814 154.493 366.031 167.003C366.942 172.165 367.731 198.127 368.308 204.655C368.308 204.655 368.308 208.056 368.915 212.124C369.523 216.193 369.826 210.09 369.826 209.392C369.826 208.724 370.251 212.55 371.041 216.527C371.648 219.594 373.166 222.297 373.47 217.56C373.774 212.793 373.774 204.291 372.863 201.588C371.952 198.886 373.774 180.515 372.863 165.212C371.952 149.908 369.371 134.21 369.371 134.21L360.717 134.605Z" fill="#EFB68F"/>
<path d="M359.5 136.487C359.5 136.487 356.16 125.556 359.5 123.431C362.84 121.305 370.127 128.289 371.038 135.272L359.5 136.487Z" fill="#2A94F4"/>
<g opacity="0.5">
<path opacity="0.5" d="M58.6209 265.14C48.1756 264.503 39.3092 255.545 39.2485 248.015C39.1878 241.79 45.1695 240.181 45.3517 232.317C45.5339 225.545 41.1311 224.027 41.8902 218.258C42.6797 212.185 48.6007 205.232 55.7667 205.201C63.965 205.171 69.552 214.371 70.0379 221.72C70.3719 226.73 67.3051 227.398 67.3962 232.134C67.5784 241.76 79.6026 244.523 79.4204 251.719C79.2686 258.278 68.9144 265.778 58.6209 265.14Z" fill="#2A94F4"/>
</g>
<path d="M58.5253 215.373H57.918V270.241H58.5253V215.373Z" fill="#F7F7F7"/>
<path d="M58.1648 234.412C53.094 234.078 52.3956 226.608 52.3652 226.305L52.9725 226.244C52.9725 226.305 53.6709 233.501 58.2255 233.804L58.1648 234.412Z" fill="#F7F7F7"/>
<path d="M50.8475 269.816H65.392C66.8191 269.816 67.9426 271.001 67.8818 272.428L65.9082 309.138C65.8474 310.413 64.815 311.446 63.5397 311.476L52.9426 311.901C51.5762 311.962 50.4224 310.899 50.3617 309.563L48.388 272.428C48.2969 271.001 49.4204 269.816 50.8475 269.816Z" fill="#2A94F4"/>
<path d="M58.1619 253.571C54.5182 253.329 54.0323 248.045 54.002 247.802L54.6092 247.742C54.6092 247.802 55.0951 252.752 58.1922 252.964L58.1619 253.571Z" fill="#F7F7F7"/>
<path d="M57.9483 245.616L57.918 245.009C62.169 244.796 62.8066 240.029 62.8066 239.999L63.4139 240.06C63.4139 240.12 62.7155 245.404 57.9483 245.616Z" fill="#F7F7F7"/>
<path d="M58.169 259.705L58.1387 259.098C61.1447 258.946 61.5698 255.667 61.6002 255.545L62.2075 255.606C62.2075 255.636 61.6913 259.523 58.169 259.705Z" fill="#F7F7F7"/>
<defs>
<filter id="filter0_d" x="185.01" y="0" width="117.007" height="117.008" filterUnits="userSpaceOnUse" color-interpolation-filters="sRGB">
<feFlood flood-opacity="0" result="BackgroundImageFix"/>
<feColorMatrix in="SourceAlpha" type="matrix" values="0 0 0 0 0 0 0 0 0 0 0 0 0 0 0 0 0 0 127 0"/>
<feOffset dy="4"/>
<feGaussianBlur stdDeviation="2"/>
<feColorMatrix type="matrix" values="0 0 0 0 0.5375 0 0 0 0 0.5375 0 0 0 0 0.5375 0 0 0 0.3 0"/>
<feBlend mode="normal" in2="BackgroundImageFix" result="effect1_dropShadow"/>
<feBlend mode="normal" in="SourceGraphic" in2="effect1_dropShadow" result="shape"/>
</filter>
</defs>
</svg>
