<svg width="583" height="301" viewBox="0 0 583 301" fill="none" xmlns="http://www.w3.org/2000/svg">
    <path
        d="M173.86 104.085C198.957 104.085 219.301 83.7403 219.301 58.6441C219.301 33.548 198.957 13.2036 173.86 13.2036C148.764 13.2036 128.42 33.548 128.42 58.6441C128.42 83.7403 148.764 104.085 173.86 104.085Z"
        stroke="#D3D3D3" stroke-miterlimit="10" stroke-dasharray="12.14 12.14" />
    <path
        d="M200.09 49.1669C191.31 52.9872 182.604 57.6893 176.47 65.0362C170.335 72.383 167.249 82.9258 170.959 91.7788C175.882 103.571 191.457 110.44 191.531 123.224C191.567 132.37 183.119 139.35 174.596 142.693C166.074 146.036 156.633 147.211 148.882 152.097C137.164 159.444 131.69 173.66 129.449 187.288C127.135 201.431 128.054 217.558 138.082 227.843C150.535 240.59 171.106 239.158 188.739 236.439C212.249 232.802 235.649 228.541 259.085 224.28C310.403 214.913 361.722 205.582 413.003 196.215C418.513 195.223 424.244 194.121 428.689 190.742C437.578 184.056 438.313 170.28 433.17 160.472C428.027 150.627 418.476 143.942 408.999 138.174C399.521 132.407 389.493 126.934 382.403 118.375C375.313 109.815 371.787 97.1788 377.15 87.4809C381.705 79.2524 391.476 74.8443 395.738 66.4688C401.358 55.4117 394.893 41.3057 384.681 34.2527C374.432 27.1262 246.412 28.8894 200.09 49.1669Z"
        fill="#E7F4FF" />
    <path opacity="0.5"
        d="M466.929 300.174H112.441C109.797 300.174 107.666 298.006 107.666 295.398V266.929C107.666 264.284 109.833 262.153 112.441 262.153H466.929C469.574 262.153 471.705 264.321 471.705 266.929V295.398C471.705 298.006 469.537 300.174 466.929 300.174Z"
        fill="#E7F4FF" />
    <path d="M229.918 261.749H173.861V274.606H229.918V261.749Z" fill="#072C3D" />
    <path
        d="M160.27 276.993C169.821 279.381 205.05 283.311 222.572 285.148C226.466 285.552 229.478 285.883 231.168 286.03C232.086 286.103 232.601 286.177 232.601 286.177C232.601 286.177 237.192 285.883 242.776 285.589C247.919 285.295 259.784 285.368 263.898 285.221C265.441 285.185 265.955 283.091 264.633 282.319C262.209 280.924 252.033 276.773 247.037 276.148C243.951 275.781 240.572 272.989 237.89 271.446C235.833 270.234 233.482 272.328 231.609 273.026C230.69 273.356 230.029 275.413 229.001 275.487C228.743 275.524 228.486 275.524 228.229 275.56C226.943 275.634 225.584 275.56 224.299 275.413C223.931 275.377 223.601 275.34 223.233 275.266C219.156 274.642 215.776 273.356 215.776 273.356C203.286 266.891 175.809 249.589 154.43 254.181C154.246 254.218 154.062 254.254 153.915 254.291C153.732 254.328 153.548 254.365 153.401 254.401C131.911 259.801 147.45 273.76 160.27 276.993Z"
        fill="#FCD2B1" />
    <path
        d="M160.27 276.994C169.821 279.382 205.05 283.312 222.572 285.149L225.768 266.672C225.143 266.561 224.482 266.525 223.821 266.525C217.062 266.451 210.376 265.055 204.131 262.41C189.952 256.349 169.895 250.251 153.364 254.365C131.911 259.802 147.45 273.761 160.27 276.994Z"
        fill="#093954" />
    <path
        d="M236.824 271.888C236.824 270.051 239.028 268.949 239.028 268.949L256.147 275.267L265.477 280.337L267.314 282.908L265.11 284.561L246.008 281.806L239.763 278.133L236.824 271.888Z"
        fill="#4F4F4F" />
    <path
        d="M228.189 275.561L231.165 286.03C232.083 286.104 232.598 286.177 232.598 286.177C232.598 286.177 237.189 285.883 242.773 285.59C247.916 285.296 259.781 285.369 263.895 285.222C265.438 285.186 265.952 283.092 264.63 282.32C262.206 280.924 252.03 276.773 247.034 276.149C243.949 275.782 240.569 272.99 237.887 271.447C235.83 270.235 233.479 272.328 231.606 273.026C230.687 273.357 230.026 275.414 228.998 275.488C228.704 275.524 228.447 275.561 228.189 275.561Z"
        fill="#1E1E1E" />
    <path
        d="M223.122 243.823L207.032 249.113C204.792 249.113 202.955 247.129 202.955 244.705C202.955 247.129 201.118 249.113 198.877 249.113L182.788 243.823C170.775 239.892 163.208 227.035 165.008 213.59L167.322 200.146C168.498 191.55 175.294 185.158 183.339 185.158L187.673 184.129L188.077 184.019L195.792 182.182L198.914 181.448H207.032L210.155 182.182L217.869 184.019L218.273 184.129L222.608 185.158C230.653 185.158 237.448 191.513 238.624 200.146L240.938 213.59C242.701 227.035 235.171 239.892 223.122 243.823Z"
        fill="#0E538C" />
    <path d="M233.959 259.655L172.722 257.598L168.865 204.443H238.624L233.959 259.655Z" fill="#0E538C" />
    <path
        d="M249.753 276.994C240.202 279.382 204.973 283.312 187.451 285.149C183.557 285.553 180.545 285.884 178.855 286.031C177.937 286.104 177.422 286.178 177.422 286.178C177.422 286.178 172.831 285.884 167.247 285.59C162.104 285.296 150.239 285.369 146.125 285.222C144.582 285.186 144.068 283.092 145.39 282.32C147.814 280.925 157.99 276.774 162.986 276.149C166.072 275.782 169.451 272.99 172.133 271.447C174.19 270.235 176.541 272.329 178.414 273.027C179.333 273.357 179.994 275.414 181.022 275.488C181.28 275.525 181.537 275.525 181.794 275.561C183.08 275.635 184.439 275.561 185.724 275.414C186.092 275.378 186.422 275.341 186.79 275.267C190.867 274.643 194.247 273.357 194.247 273.357C206.737 266.892 234.214 249.59 255.593 254.182C255.777 254.219 255.961 254.255 256.108 254.292C256.291 254.329 256.475 254.366 256.622 254.402C278.112 259.802 262.573 273.761 249.753 276.994Z"
        fill="#FCD2B1" />
    <path
        d="M249.751 276.994C240.201 279.382 204.972 283.312 187.45 285.149L184.254 266.672C184.878 266.561 185.54 266.525 186.201 266.525C192.96 266.451 199.646 265.055 205.891 262.41C220.07 256.349 240.127 250.251 256.658 254.365C278.11 259.802 262.572 273.761 249.751 276.994Z"
        fill="#0B4870" />
    <path
        d="M173.201 271.888C173.201 270.051 170.996 268.949 170.996 268.949L153.878 275.267L144.548 280.337L142.711 282.908L144.915 284.561L164.017 281.806L170.262 278.133L173.201 271.888Z"
        fill="#4F4F4F" />
    <path
        d="M181.833 275.561L178.857 286.031C177.939 286.104 177.424 286.178 177.424 286.178C177.424 286.178 172.833 285.884 167.249 285.59C162.106 285.296 150.241 285.369 146.127 285.222C144.584 285.186 144.07 283.092 145.392 282.32C147.816 280.925 157.992 276.774 162.988 276.149C166.073 275.782 169.453 272.99 172.135 271.447C174.192 270.235 176.543 272.329 178.416 273.027C179.335 273.357 179.996 275.414 181.024 275.488C181.318 275.525 181.575 275.561 181.833 275.561Z"
        fill="#1E1E1E" />
    <path
        d="M219.669 166.346C220.32 164.641 219.697 162.818 218.275 162.275C216.854 161.732 215.173 162.674 214.522 164.38C213.87 166.085 214.494 167.908 215.915 168.451C217.337 168.994 219.017 168.052 219.669 166.346Z"
        fill="#FFE3CA" />
    <path
        d="M196.123 176.121L196.343 184.093L196.564 184.387C199.65 188.868 206.335 188.684 209.201 184.093L208.907 175.974L196.123 176.121Z"
        fill="#FCD2B1" />
    <path
        d="M217.023 160.399C217.023 176.011 210.264 181.521 202.586 181.521C194.909 181.521 189.215 176.011 189.215 160.399C189.215 151.913 195.46 145.044 203.137 145.044C210.815 145.044 217.023 151.913 217.023 160.399Z"
        fill="#FFE3CA" />
    <path
        d="M194.799 156.505C201.044 159.921 207.84 162.346 214.856 163.668C217.611 164.182 220.623 156.542 219.117 153.97C217.023 150.334 214.93 145.558 211.403 143.317C207.877 141.077 202.66 143.244 198.546 144.052C194.873 144.787 193.77 143.538 190.832 145.889C188.407 147.836 186.901 151.656 186.056 154.632C185.211 157.607 186.313 163.925 189.362 164.623C190.097 160.215 191.86 159.076 192.668 156.909L194.799 156.505Z"
        fill="#0E538C" />
    <path
        d="M190.715 168.448C192.136 167.905 192.76 166.082 192.108 164.377C191.457 162.671 189.776 161.729 188.355 162.272C186.933 162.815 186.31 164.638 186.961 166.343C187.613 168.049 189.293 168.991 190.715 168.448Z"
        fill="#FFE3CA" />
    <path
        d="M232.12 266.304H173.088C171.288 266.304 169.782 264.835 169.782 262.998L168.129 223.068C168.129 221.268 169.598 219.762 171.435 219.762H233.773C235.573 219.762 237.08 221.231 237.08 223.068L235.426 262.998C235.39 264.835 233.92 266.304 232.12 266.304Z"
        fill="#CCE9FF" />
    <path
        d="M202.512 249.296C205.961 249.296 208.757 246.5 208.757 243.051C208.757 239.602 205.961 236.806 202.512 236.806C199.063 236.806 196.268 239.602 196.268 243.051C196.268 246.5 199.063 249.296 202.512 249.296Z"
        fill="#0B4870" />
    <path
        d="M200.385 157.68C203.838 159.848 207.364 162.015 211.148 163.08C214.932 164.145 219.083 164.035 222.462 161.721C224.005 160.656 225.474 159.039 225.842 156.909C226.136 155.219 225.695 153.419 224.96 151.95C224.225 150.48 223.16 149.305 222.132 148.129C222.352 149.746 221.397 151.325 220.185 151.95C218.972 152.574 217.576 152.464 216.327 152.097C214.234 151.509 212.25 150.333 210.23 149.341C208.209 148.35 206.079 147.541 203.911 147.762C201.744 147.982 199.577 149.378 198.658 151.839"
        fill="#0E538C" />
    <path d="M402.351 257.892H354.486V268.876H402.351V257.892Z" fill="#072C3D" />
    <path d="M405.839 256.129L353.529 254.366L350.223 208.962H409.806L405.839 256.129Z" fill="#2A94F4" />
    <path
        d="M335.159 258.039C343.535 258.37 353.637 264.982 388.167 266.415C393.383 266.635 396.616 267.994 396.616 267.994C396.616 267.994 400.29 269.317 404.808 270.933C408.959 272.402 413.808 274.129 417.114 275.231C418.363 275.635 418.289 277.472 417.004 277.765C413.845 278.5 406.755 278.39 401.612 276.627C397.388 278.5 395.441 278.61 393.347 277.104C392.649 276.59 391.877 276.186 391.069 275.855C389.563 275.231 387.91 274.863 386.33 274.68C382.841 274.202 379.755 274.459 379.755 274.459C367.78 276.774 340.376 284.525 324.102 274.9C307.755 265.276 323.882 257.598 335.159 258.039Z"
        fill="#FFE3CA" />
    <path
        d="M335.162 258.039C343.537 258.37 373.366 263.696 388.17 266.415L386.296 274.68C382.807 274.202 379.721 274.459 379.721 274.459C367.745 276.774 340.341 284.525 324.068 274.9C307.758 265.276 323.884 257.598 335.162 258.039Z"
        fill="#0A3E5B" />
    <path
        d="M397.024 273.247C398.677 273.614 401.101 271.631 404.848 270.933C408.999 272.402 413.848 274.129 417.154 275.231C418.403 275.635 418.33 277.472 417.044 277.765C413.885 278.5 406.795 278.39 401.652 276.627C397.428 278.5 395.481 278.61 393.387 277.104C392.689 276.59 391.918 276.186 391.109 275.855C391.844 273.798 395.04 273.468 397.024 273.247Z"
        fill="#2A94F4" />
    <path
        d="M415.095 209.146C414.655 222.921 413.369 240.076 409.806 245.476C408.41 247.607 402.238 248.121 402.238 248.121H390.3C390.3 248.121 390.336 248.047 390.41 247.937C390.41 247.9 390.447 247.9 390.447 247.864C391.071 246.798 393.459 242.464 395.516 236.586C397.94 229.643 399.924 220.57 397.867 212.305H360.251C356.173 228.615 367.781 248.121 367.781 248.121H355.843C355.843 248.121 349.524 246.798 348.092 244.043C344.492 237.137 343.426 222.774 342.949 209.109C342.324 189.97 363.704 186.407 375.165 185.709H382.843C383.247 185.746 383.651 185.782 384.055 185.819C395.81 187.068 415.72 190.668 415.095 209.146Z"
        fill="#2A94F4" />
    <path
        d="M360.326 160.656C360.326 152.023 368.885 142.325 379.465 142.325C390.044 142.325 398.603 152.023 398.603 160.656C398.603 169.289 390.044 176.893 379.465 176.893C368.885 176.893 360.326 169.289 360.326 160.656Z"
        fill="#0E538C" />
    <path d="M373.512 179.17L375.238 189.639L379.499 210.027L383.026 189.639L384.459 179.023L373.512 179.17Z"
        fill="#FCD2B1" />
    <path
        d="M391.365 165.725C391.365 172.962 386.039 181.668 379.5 181.668C372.961 181.668 367.635 172.962 367.635 165.725C367.635 158.489 372.961 152.611 379.5 152.611C386.039 152.611 391.365 158.489 391.365 165.725Z"
        fill="#FFE3CA" />
    <path
        d="M404.259 261.823H353.822C352.279 261.823 351.03 260.574 351.03 259.031L349.598 224.941C349.598 223.398 350.847 222.149 352.389 222.149H405.618C407.161 222.149 408.41 223.398 408.41 224.941L406.977 259.031C407.05 260.537 405.801 261.823 404.259 261.823Z"
        fill="#FFBE55" />
    <path
        d="M425.568 265.753C418.368 270.051 390.45 281.843 376.564 287.647C371.752 289.667 368.629 290.953 368.629 290.953C368.629 290.953 364.809 291.835 360.144 292.937C355.846 293.965 350.887 295.178 347.507 296.059C346.221 296.39 345.303 294.847 346.221 293.855C348.462 291.504 354.487 287.72 359.74 286.398C362.238 282.541 363.854 281.365 366.425 281.512C367.27 281.549 368.152 281.476 369.033 281.292C370.613 280.998 372.229 280.374 373.662 279.712C376.821 278.206 379.282 276.296 379.282 276.296C388.062 267.81 406.796 246.394 425.678 245.549C444.596 244.741 435.302 259.986 425.568 265.753Z"
        fill="#FFE3CA" />
    <path
        d="M425.568 265.753C418.368 270.051 390.449 281.843 376.564 287.647L373.625 279.712C376.784 278.206 379.245 276.296 379.245 276.296C388.025 267.81 406.759 246.394 425.641 245.549C444.596 244.741 435.302 259.986 425.568 265.753Z"
        fill="#0A3E5B" />
    <path
        d="M365.471 286.765C363.891 287.353 362.936 290.365 360.181 292.973C355.883 294.002 350.924 295.214 347.544 296.096C346.258 296.426 345.34 294.884 346.258 293.892C348.499 291.541 354.524 287.757 359.777 286.435C362.275 282.578 363.891 281.402 366.462 281.549C367.307 281.586 368.189 281.512 369.071 281.329C369.511 283.459 366.977 285.48 365.471 286.765Z"
        fill="#2A94F4" />
    <path
        d="M378.95 247.276C381.891 247.276 384.276 244.891 384.276 241.949C384.276 239.008 381.891 236.623 378.95 236.623C376.008 236.623 373.623 239.008 373.623 241.949C373.623 244.891 376.008 247.276 378.95 247.276Z"
        fill="white" />
    <path
        d="M376.303 146.881C376.707 139.313 381.887 132.223 389.014 129.579C396.103 126.934 404.699 128.881 409.952 134.317C415.205 139.754 416.858 148.387 413.956 155.403C412.009 160.142 408.152 164.256 407.895 169.362C407.601 175.129 411.973 180.088 412.964 185.746C414.066 191.954 410.54 198.713 404.809 201.358C399.152 203.966 391.218 201.799 389.05 195.921C387.434 191.586 389.271 186.664 391.989 182.917C394.707 179.17 398.307 176.158 400.989 172.374C402.679 170.023 404.001 167.268 404.111 164.403C404.258 161.501 402.973 158.452 400.511 156.946C397.242 154.999 393.054 156.248 389.234 156.101C382.511 155.88 376.267 150.664 374.834 144.089"
        fill="#0E538C" />
    <path
        d="M371.199 153.787C371.75 158.121 375.166 161.758 379.207 163.448C383.248 165.138 387.803 165.211 392.138 164.697C392.542 164.66 392.982 164.587 393.276 164.293C393.717 163.852 393.607 163.08 393.423 162.456C392.725 159.701 391.917 156.836 390.007 154.742C387.325 151.803 383.027 151.031 379.097 151.178C376.305 151.289 373.403 151.803 371.162 153.493"
        fill="#0E538C" />
    <path
        d="M334.354 45.7503C332.627 45.7503 330.9 45.934 329.247 46.2646C327.962 39.9096 323.884 34.5096 318.117 31.5708C312.35 28.6321 305.554 28.5219 299.676 31.2402C294.35 16.6199 278.186 9.05261 263.566 14.3791C248.946 19.7056 241.379 35.8688 246.705 50.4891C233.885 50.8932 223.746 61.5094 223.966 74.3298C224.15 87.1501 234.583 97.4358 247.44 97.4725H334.427C348.717 97.4725 360.288 85.9011 360.288 71.6114C360.288 57.3217 348.643 45.7503 334.354 45.7503Z"
        fill="#2A94F4" />
    <path
        d="M341.334 42.077C339.607 42.077 337.881 42.2607 336.228 42.5913C334.942 36.2362 330.865 30.8363 325.097 27.8975C319.33 24.9587 312.534 24.8485 306.657 27.5669C301.33 12.9466 285.167 5.37927 270.547 10.7058C255.926 16.0323 248.359 32.1954 253.686 46.8158C240.865 47.2198 230.726 57.8361 230.947 70.6564C231.131 83.4768 241.563 93.7624 254.42 93.7991H341.407C355.697 93.7991 367.269 82.2278 367.269 67.9381C367.269 53.6484 355.624 42.077 341.334 42.077Z"
        stroke="#2A94F4" stroke-miterlimit="10" />
    <path d="M320.543 90.8604V228.468C320.543 240.921 330.645 251.023 343.098 251.023H350.702" stroke="#2A94F4"
        stroke-width="4" stroke-miterlimit="10" stroke-dasharray="12 12" />
    <path d="M267.313 90.8604V228.468C267.313 240.921 257.211 251.023 244.758 251.023H237.154" stroke="#2A94F4"
        stroke-width="4" stroke-miterlimit="10" stroke-dasharray="12 12" />
    <path
        d="M350.846 256.349C353.686 256.349 355.989 254.047 355.989 251.206C355.989 248.366 353.686 246.063 350.846 246.063C348.006 246.063 345.703 248.366 345.703 251.206C345.703 254.047 348.006 256.349 350.846 256.349Z"
        fill="#2A94F4" />
    <path
        d="M235.319 256.533C238.159 256.533 240.461 254.23 240.461 251.39C240.461 248.55 238.159 246.247 235.319 246.247C232.478 246.247 230.176 248.55 230.176 251.39C230.176 254.23 232.478 256.533 235.319 256.533Z"
        fill="#2A94F4" />
    <path
        d="M454.734 276.957C460.06 276.957 462.301 272.696 463.183 268.177C464.174 263.071 463.44 257.671 463.44 257.671H445.991C445.991 257.671 445.954 257.892 445.917 258.259C445.624 261.455 444.558 276.957 454.734 276.957Z"
        fill="#B6E7FF" />
    <path
        d="M446.029 257.672C446.029 258.039 449.923 258.37 454.735 258.37C459.548 258.37 463.441 258.076 463.441 257.672C463.441 257.304 459.548 256.974 454.735 256.974C449.923 256.974 446.029 257.304 446.029 257.672Z"
        fill="#85DDFF" />
    <path
        d="M431.113 209.329C431.113 209.329 440.297 223.325 445.844 231.884C451.354 240.443 452.823 242.206 453.448 244.961C454.109 247.716 454.697 257.892 454.697 257.892H455.101C455.101 257.892 454.954 249.259 454.476 246.321C453.999 243.492 454.513 242.5 454.917 239.525C455.321 236.586 455.836 231.847 452.86 228.541C449.885 225.272 450.656 222.039 449.591 219.872C448.525 217.704 440.407 215.06 439.342 212.855C438.277 210.651 433.685 209.255 431.113 209.329Z"
        fill="#2A94F4" />
    <path
        d="M431.113 209.329C431.113 209.329 434.015 212.598 435.962 213.737C437.946 214.839 438.864 213.884 440.37 216.566C441.876 219.247 441.95 220.459 443.309 221.819C444.705 223.214 446.321 223.251 446.468 226.3C446.615 229.312 445.807 231.884 445.807 231.884C445.807 231.884 431.701 210.027 431.113 209.329Z"
        fill="#41AAF7" />
    <path
        d="M453.963 257.892H453.559C453.559 257.892 453.449 255.1 452.31 253.741C451.612 252.859 448.563 251.868 445.551 250.692C443.898 250.031 442.245 249.333 440.996 248.525C437.506 246.284 434.163 239.157 433.87 237.872C433.759 237.431 433.723 237.174 433.723 236.99C433.723 236.66 433.906 236.586 434.2 236.255C434.347 236.072 434.751 236.145 435.302 236.292C436.808 236.77 438.094 237.798 438.865 239.157C439.6 240.406 440.776 241.986 442.208 242.39C444.67 243.051 444.486 243.455 445.367 245.953C446.286 248.451 448.563 248.892 451.465 251.831C454.331 254.733 453.963 257.892 453.963 257.892Z"
        fill="#2A94F4" />
    <path
        d="M445.551 250.655C443.898 249.994 442.245 249.296 440.996 248.488C437.506 246.247 434.163 239.121 433.87 237.835C433.759 237.394 433.723 237.137 433.723 236.953C433.723 237.027 433.906 238.166 435.706 238.937C437.617 239.708 437.984 239.708 438.204 240.921C438.461 242.096 438.645 243.382 439.637 243.639C440.629 243.896 441.253 242.757 442.025 244.594C442.796 246.394 443.163 247.019 443.898 247.276C444.633 247.533 445.147 247.166 445.331 248.561C445.478 249.333 445.514 250.141 445.551 250.655Z"
        fill="#41AAF7" />
    <path
        d="M457.014 257.892H457.492C457.492 257.892 458.447 240.553 459.769 238.974C460.614 237.945 463.406 236.072 466.969 234.676C468.916 233.904 470.9 233.059 472.369 232.104C476.52 229.459 480.451 220.974 480.818 219.468C480.928 218.953 481.002 218.623 481.002 218.402C481.002 217.998 480.781 217.925 480.451 217.521C480.267 217.337 479.789 217.374 479.165 217.594C477.365 218.145 475.859 219.357 474.94 220.974C474.059 222.48 472.7 224.353 471.01 224.794C468.071 225.566 468.328 226.043 467.263 229.019C466.198 231.994 463.479 232.472 460.063 235.998C456.573 239.488 457.014 257.892 457.014 257.892Z"
        fill="#2A94F4" />
    <path
        d="M466.967 234.639C468.914 233.868 470.897 233.023 472.367 232.068C476.518 229.423 480.448 220.937 480.816 219.431C480.926 218.917 480.999 218.586 480.999 218.366C480.999 218.476 480.779 219.798 478.648 220.717C476.408 221.635 475.967 221.635 475.673 223.068C475.379 224.464 475.122 226.007 473.983 226.3C472.808 226.594 472.073 225.272 471.155 227.402C470.236 229.533 469.795 230.268 468.95 230.562C468.106 230.855 467.444 230.415 467.261 232.068C467.077 233.096 467.004 234.051 466.967 234.639Z"
        fill="#41AAF7" />
    <path
        d="M454.733 276.957C460.059 276.957 462.3 272.696 463.182 268.178C457.966 266.194 451.39 263.035 445.953 258.259C445.623 261.455 444.557 276.957 454.733 276.957Z"
        fill="#CCE9FF" />
    <path
        d="M130.257 275.267C135.327 275.267 137.457 271.226 138.302 266.929C139.257 262.08 138.559 256.937 138.559 256.937H121.918C121.918 256.937 121.882 257.12 121.845 257.488C121.551 260.5 120.559 275.267 130.257 275.267Z"
        fill="#B6E7FF" />
    <path
        d="M121.92 256.9C121.92 257.268 125.63 257.561 130.222 257.561C134.814 257.561 138.524 257.268 138.524 256.9C138.524 256.533 134.814 256.239 130.222 256.239C125.667 256.239 121.92 256.533 121.92 256.9Z"
        fill="#85DDFF" />
    <path
        d="M103 201.725C103 201.725 113.506 217.704 119.788 227.439C126.069 237.174 127.722 239.194 128.494 242.353C129.228 245.512 129.926 257.12 129.926 257.12H130.735C130.735 257.12 131.249 247.312 130.294 244.08C129.302 240.847 129.706 239.598 130.147 236.219C130.588 232.839 131.212 227.439 127.796 223.692C124.379 219.945 125.298 216.272 124.086 213.811C122.873 211.349 113.58 208.337 112.404 205.802C111.155 203.231 105.902 201.651 103 201.725Z"
        fill="#2A94F4" />
    <path
        d="M105.277 201.725C105.277 201.725 108.583 205.472 110.824 206.758C113.065 208.043 114.13 206.905 115.857 209.99C117.583 213.076 117.657 214.398 119.236 215.978C120.816 217.558 122.689 217.631 122.836 221.084C122.983 224.537 122.102 227.439 122.102 227.439C122.102 227.439 105.975 202.533 105.277 201.725Z"
        fill="#41AAF7" />
    <path
        d="M133.381 256.9L133.968 256.717C133.968 256.717 132.94 252.602 133.968 250.104C134.63 248.525 138.634 245.733 142.491 242.684C144.621 240.994 146.715 239.231 148.185 237.541C152.299 232.766 154.025 220.9 153.915 218.917C153.878 218.219 153.805 217.815 153.732 217.558C153.585 217.043 153.291 217.043 152.703 216.676C152.409 216.492 151.821 216.749 151.123 217.227C149.14 218.549 147.707 220.607 147.156 222.958C146.642 225.125 145.65 227.917 143.703 229.092C140.397 231.149 140.874 231.627 140.654 235.704C140.434 239.745 137.274 241.362 134.372 246.945C131.47 252.529 133.381 256.9 133.381 256.9Z"
        fill="#2A94F4" />
    <path
        d="M142.491 242.721C144.621 241.031 146.715 239.268 148.185 237.578C152.299 232.803 154.025 220.937 153.915 218.954C153.878 218.256 153.805 217.852 153.731 217.594C153.768 217.705 154.025 219.431 151.674 221.341C149.25 223.288 148.736 223.472 148.883 225.309C149.029 227.145 149.287 229.092 147.964 229.901C146.642 230.709 145.246 229.35 144.915 232.325C144.548 235.3 144.291 236.366 143.336 237.027C142.381 237.688 141.425 237.394 141.83 239.525C142.05 240.774 142.307 241.986 142.491 242.721Z"
        fill="#41AAF7" />
    <path
        d="M130.256 275.267C135.326 275.267 137.456 271.227 138.301 266.929C133.342 265.055 127.061 262.006 121.881 257.451C121.55 260.5 120.559 275.267 130.256 275.267Z"
        fill="#CCE9FF" />
</svg>
