<svg width="583" height="300" viewBox="0 0 583 300" fill="none" xmlns="http://www.w3.org/2000/svg">
    <path
        d="M136.398 222.647L132.613 220.501C131.566 222.167 130.293 223.662 129.057 224.789C128.025 225.729 126.441 225.707 125.435 224.738L125.314 224.621C124.207 223.554 124.232 221.764 125.383 220.744C126.556 219.704 127.694 218.403 128.579 216.844C129.866 214.573 129.871 212.522 128.277 211.619C126.764 210.76 125.084 211.493 122.416 213.876C118.564 217.326 114.923 219.105 111.058 216.913C107.552 214.925 106.204 210.896 107.785 206.159L104 204.013L106.214 200.108L109.72 202.096C110.606 200.684 111.476 199.604 112.306 198.758C113.321 197.725 114.982 197.712 116.025 198.717C117.103 199.756 117.108 201.483 116.031 202.524C115.224 203.303 114.347 204.336 113.55 205.742C112.081 208.332 112.722 209.801 113.838 210.434C115.153 211.179 116.78 210.259 119.975 207.596C124.337 203.804 127.613 203.134 131.199 205.167C134.745 207.178 136.349 211.405 134.548 216.439L138.612 218.743L136.398 222.647Z"
        fill="#FFCE88" />
    <path
        d="M318.456 283.403C328 270.558 335.666 270.446 335.666 270.446C335.666 270.446 339.145 247.878 336.369 238.278C333.594 228.678 321.043 237.097 321.043 237.097C321.043 237.097 337.683 204.478 330.858 200.814C318.145 193.989 298.119 228.589 298.119 228.589C298.119 228.589 302.81 213.359 293.819 213.416C280.261 213.501 279.088 248.419 279.088 248.419C279.088 248.419 276.415 241.54 268.05 245.481C259.04 249.726 256.6 275.291 256.088 295.047H303.583C310.378 290.885 315.929 286.805 318.456 283.403Z"
        fill="#2993F2" />
    <path
        d="M299.783 225.807C299.783 225.807 300.341 208.453 291.351 208.51C277.793 208.595 279.091 248.419 279.091 248.419C279.091 248.419 273.428 237.152 265.063 241.093C255.882 245.419 254.792 273.675 255.151 295.047H270.929L330.86 200.814C318.147 193.989 299.783 225.807 299.783 225.807Z"
        fill="#0E538B" />
    <path
        d="M373.607 293.919C373.607 293.919 416.889 298.902 427.373 295.23C437.857 291.558 430.914 285.687 430.914 285.687C430.914 285.687 453.086 282.855 455.226 276.256C457.364 269.657 446.874 269.614 446.874 269.614C446.874 269.614 469.129 257.335 466.631 252.573C461.977 243.704 437.004 255.805 437.004 255.805C437.004 255.805 445.626 248.874 440.435 245.409C432.607 240.184 418.349 259.803 418.349 259.803C418.349 259.803 419.488 254.808 413.146 253.82C401.767 252.047 373.607 293.919 373.607 293.919Z"
        fill="#2993F2" />
    <path
        d="M413.133 250.133C419.475 251.122 418.348 259.803 418.348 259.803C418.348 259.803 433.094 236.402 440.922 241.628C446.112 245.093 439.04 254.852 439.04 254.852C439.04 254.852 461.976 243.704 466.629 252.573L377.75 291.144C381.014 286.239 402.504 248.477 413.133 250.133Z"
        fill="#0E538B" />
    <path
        d="M373.338 294.549C373.338 294.549 412.723 267.146 418.389 255.099C424.055 243.052 413.204 244.056 413.204 244.056C413.204 244.056 429.405 222.722 425.561 215.351C421.715 207.979 412.868 216.913 412.868 216.913C412.868 216.913 421.063 187.572 414.893 185.709C403.402 182.238 392.161 219.393 392.161 219.393C392.161 219.393 387.868 198.837 380.547 200.364C369.505 202.668 380.522 233.058 380.522 233.058C380.522 233.058 377.265 223.159 371.093 227.751C360.02 235.99 373.338 294.549 373.338 294.549Z"
        fill="#2993F2" />
    <path
        d="M360.322 228.225C367.276 224.935 368.673 218.014 368.673 218.014C368.673 218.014 368.72 200.83 379.762 198.527C387.084 197 392.21 210.805 392.21 210.805C392.21 210.805 403.405 182.238 414.896 185.708L373.222 294.089C371.769 287.179 352.039 232.143 360.322 228.225Z"
        fill="#0E538B" />
    <path
        d="M361.195 294.634H281.775C279.243 294.634 277.189 292.581 277.189 290.048C277.189 287.515 279.243 285.462 281.775 285.462H361.195C363.728 285.462 365.781 287.515 365.781 290.048C365.781 292.581 363.728 294.634 361.195 294.634Z"
        fill="#D3D3D3" />
    <path
        d="M375.086 285.734H295.666C293.133 285.734 291.08 283.681 291.08 281.149C291.08 278.616 293.133 276.563 295.666 276.563H375.086C377.618 276.563 379.672 278.616 379.672 281.149C379.672 283.681 377.618 285.734 375.086 285.734Z"
        fill="#AAAAAA" />
    <path
        d="M363.972 277.304H284.553C282.02 277.304 279.967 275.251 279.967 272.718C279.967 270.186 282.02 268.132 284.553 268.132H363.972C366.505 268.132 368.558 270.186 368.558 272.718C368.558 275.251 366.505 277.304 363.972 277.304Z"
        fill="#D3D3D3" />
    <path
        d="M354.715 268.17H275.295C272.762 268.17 270.709 266.117 270.709 263.585C270.709 261.052 272.762 258.999 275.295 258.999H354.715C357.247 258.999 359.301 261.052 359.301 263.585C359.301 266.117 357.247 268.17 354.715 268.17Z"
        fill="#AAAAAA" />
    <path
        d="M410.97 257.592C410.97 279.523 393.192 297.301 371.261 297.301C349.331 297.301 331.553 279.523 331.553 257.592C331.553 235.661 349.331 217.883 371.261 217.883C393.192 217.884 410.97 235.662 410.97 257.592Z"
        fill="#FFCE88" />
    <path
        d="M404.583 257.592C404.583 275.995 389.665 290.913 371.262 290.913C352.86 290.913 337.941 275.995 337.941 257.592C337.941 239.189 352.86 224.271 371.262 224.271C389.665 224.271 404.583 239.19 404.583 257.592Z"
        fill="#FFBE55" />
    <path
        d="M360.948 278.987L362.844 273.757C360.519 272.795 358.363 271.509 356.679 270.192C355.273 269.093 354.962 267.091 355.969 265.617L356.09 265.439C357.198 263.814 359.46 263.464 360.992 264.697C362.554 265.953 364.436 267.109 366.591 267.89C369.728 269.028 372.315 268.595 373.113 266.393C373.871 264.302 372.589 262.342 369.014 259.488C363.843 255.371 360.822 251.162 362.758 245.822C364.515 240.978 369.305 238.417 375.614 239.396L377.51 234.167L382.905 236.123L381.148 240.967C383.117 241.782 384.665 242.647 385.908 243.513C387.428 244.571 387.8 246.662 386.756 248.191C385.676 249.772 383.501 250.148 381.959 249.013C380.803 248.162 379.315 247.278 377.371 246.574C373.793 245.276 372.079 246.399 371.52 247.94C370.861 249.756 372.369 251.611 376.409 255.069C382.122 259.756 383.666 263.742 381.87 268.696C380.093 273.595 375.108 276.522 368.379 275.327L366.343 280.942L360.948 278.987Z"
        fill="white" />
    <path
        d="M228.056 293.02C228.056 293.02 166.35 262.595 155.738 246.726C145.126 230.857 160.726 229.958 160.726 229.958C160.726 229.958 133.189 203.177 137.063 191.903C140.937 180.628 155.394 191.401 155.394 191.401C155.394 191.401 137.496 151.554 145.844 147.591C161.395 140.211 183.209 182.619 183.209 182.619C183.209 182.619 178.521 164.197 189.229 164.795C205.378 165.698 204.711 207.371 204.711 207.371C204.711 207.371 206.535 191.393 216.268 196.583C233.732 205.896 228.056 293.02 228.056 293.02Z"
        fill="#0E538B" />
    <path
        d="M219.777 190.138C212.176 185.92 204.607 198.247 204.607 198.247C204.607 198.247 205.373 165.699 189.225 164.796C178.517 164.197 183.205 182.62 183.205 182.62C183.205 182.62 161.39 140.212 145.84 147.592L228.123 292.344C228.704 282.235 234.834 198.493 219.777 190.138Z"
        fill="#2993F2" />
    <path
        d="M226.459 293.398C226.459 293.398 175.991 299.665 162.924 294.08C149.857 288.494 159.222 281.594 159.222 281.594C159.222 281.594 131.164 276.08 128.999 267.473C126.834 258.866 140.229 259.712 140.229 259.712C140.229 259.712 112.873 242.13 116.471 236.266C123.171 225.344 154.01 242.931 154.01 242.931C154.01 242.931 143.6 233.346 150.522 229.368C160.962 223.369 177.479 249.633 177.479 249.633C177.479 249.633 176.453 243.16 184.633 242.442C199.309 241.154 226.459 293.398 226.459 293.398Z"
        fill="#0E538B" />
    <path
        d="M184.966 237.738C176.786 238.455 177.481 249.633 177.481 249.633C177.481 249.633 160.665 218.5 150.225 224.499C143.303 228.477 151.493 241.541 151.493 241.541C151.493 241.541 123.173 225.344 116.473 236.267L226.614 293.118C222.87 286.577 198.675 236.535 184.966 237.738Z"
        fill="#2993F2" />
    <path opacity="0.5"
        d="M121.461 295.99C121.461 296.774 122.096 297.409 122.88 297.409H476.582C477.365 297.409 478 296.774 478 295.99C478 295.206 477.365 294.571 476.582 294.571H122.88C122.096 294.571 121.461 295.206 121.461 295.99Z"
        fill="#0E538B" />
    <path
        d="M369.025 49.2266L367.226 53.7116L359.689 51.6137L356.25 57.8467L350.353 57.1988L350.025 60.1835L357.912 61.0502L361.171 55.1433L369.011 57.3257L371.718 50.5767L369.025 49.2266Z"
        fill="#2993F2" />
    <path
        d="M395.827 169.369L397.679 164.772C395.64 163.842 393.76 162.63 392.302 161.405C391.085 160.382 390.871 158.59 391.813 157.309L391.927 157.154C392.965 155.743 394.989 155.502 396.315 156.648C397.666 157.815 399.305 158.904 401.199 159.667C403.957 160.778 406.273 160.474 407.053 158.538C407.794 156.7 406.713 154.915 403.621 152.262C399.145 148.434 396.588 144.591 398.479 139.898C400.195 135.64 404.54 133.51 410.127 134.58L411.979 129.984L416.721 131.895L415.005 136.153C416.733 136.94 418.084 137.759 419.163 138.569C420.482 139.559 420.748 141.432 419.771 142.76C418.76 144.134 416.811 144.4 415.474 143.342C414.472 142.548 413.174 141.714 411.466 141.026C408.321 139.759 406.759 140.704 406.214 142.059C405.57 143.655 406.854 145.354 410.343 148.56C415.282 152.912 416.531 156.509 414.777 160.864C413.042 165.17 408.511 167.619 402.558 166.345L400.568 171.28L395.827 169.369Z"
        fill="#D3D3D3" />
    <path
        d="M294.049 294.581H200.765C197.048 294.581 194.035 291.568 194.035 287.852C194.035 284.135 197.048 281.122 200.765 281.122H294.049C297.766 281.122 300.779 284.135 300.779 287.852C300.779 291.568 297.766 294.581 294.049 294.581Z"
        fill="#FFCE88" />
    <path
        d="M308.071 281.26H220.253C216.536 281.26 213.523 278.247 213.523 274.53C213.523 270.814 216.536 267.801 220.253 267.801H308.071C311.787 267.801 314.8 270.814 314.8 274.53C314.8 278.247 311.787 281.26 308.071 281.26Z"
        fill="#FFBE55" />
    <path
        d="M295.561 267.796H211.557C207.925 267.796 204.98 264.852 204.98 261.22V260.909C204.98 257.277 207.925 254.333 211.557 254.333H295.561C299.193 254.333 302.137 257.277 302.137 260.909V261.22C302.137 264.852 299.193 267.796 295.561 267.796Z"
        fill="#FFCE88" />
    <path
        d="M295.478 254.37H211.08C207.511 254.37 204.617 251.477 204.617 247.907V247.374C204.617 243.805 207.511 240.911 211.08 240.911H295.478C299.047 240.911 301.941 243.805 301.941 247.374V247.907C301.941 251.477 299.047 254.37 295.478 254.37Z"
        fill="#FFBE55" />
    <path
        d="M298.256 241.703H213.085C209.368 241.703 206.355 238.69 206.355 234.973C206.355 231.257 209.368 228.244 213.085 228.244H298.256C301.973 228.244 304.986 231.257 304.986 234.973C304.986 238.69 301.973 241.703 298.256 241.703Z"
        fill="#FFCE88" />
    <path
        d="M294.583 228.414H209.411C205.695 228.414 202.682 225.401 202.682 221.684C202.682 217.968 205.695 214.955 209.411 214.955H294.583C298.299 214.955 301.312 217.968 301.312 221.684C301.312 225.401 298.299 228.414 294.583 228.414Z"
        fill="#FFBE55" />
    <path
        d="M298.848 202.414H217.266C213.623 202.414 210.67 199.461 210.67 195.817V195.552C210.67 191.909 213.623 188.955 217.266 188.955H298.848C302.492 188.955 305.445 191.909 305.445 195.552V195.817C305.445 199.461 302.492 202.414 298.848 202.414Z"
        fill="#FFBE55" />
    <path
        d="M306.16 215.354H227.784C224.208 215.354 221.309 212.455 221.309 208.879V208.371C221.309 204.794 224.208 201.896 227.784 201.896H306.16C309.736 201.896 312.635 204.795 312.635 208.371V208.879C312.635 212.455 309.736 215.354 306.16 215.354Z"
        fill="#FFCE88" />
    <path
        d="M215.465 227.957C231.506 242.751 232.517 267.748 217.723 283.789C202.929 299.83 177.932 300.841 161.891 286.047C145.85 271.253 144.839 246.256 159.633 230.215C174.427 214.173 199.424 213.162 215.465 227.957Z"
        fill="#FFCE88" />
    <path
        d="M211.153 232.629C224.614 245.043 225.462 266.019 213.048 279.48C200.634 292.94 179.658 293.789 166.197 281.374C152.737 268.96 151.888 247.984 164.303 234.523C176.717 221.063 197.693 220.215 211.153 232.629Z"
        fill="#FFBE55" />
    <path
        d="M210.422 267.356C211.185 268.358 211.132 269.758 210.295 270.699C208.653 272.543 205.969 274.775 202.597 276.43C197.665 278.852 192 279.592 186.651 277.766C183.309 276.625 180.124 274.293 177.727 271.111L174.812 272.542C173.822 273.028 172.624 272.619 172.138 271.629L172.101 271.553C171.615 270.563 172.024 269.366 173.014 268.879L175.406 267.705C174.927 266.92 174.596 266.434 174.376 265.985C174.009 265.238 173.643 264.305 173.316 263.259L170.85 264.47C169.859 264.956 168.662 264.547 168.176 263.557C167.689 262.566 168.098 261.369 169.089 260.883L172.078 259.415C171.212 255.574 171.353 251.703 172.493 248.36C174.434 242.677 178.71 238.352 183.867 235.82C186.873 234.344 189.405 233.748 191.479 233.523C192.922 233.367 194.229 234.379 194.437 235.815L194.444 235.86C194.66 237.348 193.615 238.714 192.126 238.919C190.432 239.153 188.455 239.689 186.213 240.789C182.925 242.404 180.15 245.064 178.783 248.889C178.021 251.118 177.816 253.723 178.58 256.223L195.396 247.968C196.386 247.481 197.584 247.89 198.07 248.881C198.556 249.871 198.147 251.068 197.157 251.555L179.594 260.177C179.922 261.036 180.251 261.895 180.508 262.418C180.838 263.091 181.169 263.763 181.684 264.623L199.284 255.982C200.295 255.486 201.517 255.903 202.014 256.914C202.511 257.926 202.093 259.148 201.082 259.644L184.229 267.918C185.816 269.829 187.779 271.183 189.785 271.868C193.76 273.163 197.263 272.741 201 270.907C203.278 269.789 205.126 268.379 206.505 267.054C207.639 265.965 209.469 266.104 210.422 267.356Z"
        fill="white" />
    <path
        d="M210.417 150.971C210.942 151.821 210.792 152.923 210.059 153.601C208.621 154.93 206.33 156.485 203.54 157.532C199.46 159.064 194.93 159.212 190.848 157.358C188.297 156.199 185.963 154.112 184.315 151.416L181.905 152.321C181.085 152.628 180.171 152.213 179.864 151.394L179.84 151.331C179.533 150.512 179.948 149.598 180.767 149.291L182.746 148.548C182.428 147.891 182.204 147.482 182.065 147.11C181.833 146.492 181.616 145.727 181.438 144.877L179.398 145.643C178.579 145.95 177.665 145.535 177.357 144.716C177.05 143.896 177.465 142.982 178.284 142.675L180.757 141.747C180.37 138.647 180.779 135.602 181.937 133.051C183.907 128.714 187.616 125.629 191.882 124.028C194.369 123.094 196.415 122.818 198.07 122.801C199.22 122.789 200.174 123.689 200.228 124.838L200.23 124.874C200.286 126.066 199.356 127.064 198.164 127.111C196.808 127.165 195.207 127.436 193.352 128.132C190.632 129.153 188.236 131.039 186.862 133.954C186.089 135.654 185.726 137.695 186.136 139.728L200.048 134.507C200.868 134.199 201.781 134.614 202.089 135.433C202.396 136.253 201.981 137.167 201.162 137.474L186.632 142.927C186.825 143.631 187.019 144.334 187.181 144.767C187.39 145.324 187.599 145.88 187.939 146.599L202.5 141.134C203.337 140.82 204.27 141.243 204.584 142.08C204.897 142.917 204.474 143.85 203.637 144.164L189.695 149.397C190.801 151.027 192.246 152.248 193.777 152.943C196.815 154.271 199.613 154.209 202.704 153.049C204.589 152.341 206.157 151.371 207.347 150.431C208.327 149.658 209.761 149.91 210.417 150.971Z"
        fill="#D3D3D3" />
    <path
        d="M339.537 104.474L343.976 102.227L348.344 104.61C348.841 104.881 349.434 104.464 349.347 103.904L348.581 98.9881L352.197 95.5706C352.609 95.1813 352.395 94.4888 351.836 94.3987L346.924 93.6075L344.791 89.1123C344.548 88.6003 343.824 88.5892 343.565 89.0934L341.294 93.5206L336.36 94.16C335.798 94.2328 335.564 94.9186 335.963 95.3204L339.472 98.8476L338.556 103.738C338.451 104.295 339.031 104.73 339.537 104.474Z"
        fill="#FFBE55" />
    <path
        d="M250.44 14.2502L245.852 14.7158L244.288 7.41712L237.496 7.27063L235.432 2L232.764 3.04465L235.524 10.094L241.96 10.2329L243.588 17.8257L250.492 17.1249L250.44 14.2502Z"
        fill="#FFBE55" />
    <path
        d="M344.706 123.624L349.614 125.242C349.614 125.242 357.396 122.721 358.162 121.135C358.929 119.549 359.145 115.7 360.252 115.595C361.359 115.49 363.499 115.85 364.009 118.484C364.379 120.396 361.579 125.922 362.016 126.51C362.29 126.878 365.084 127.889 367.138 128.595C368.488 129.059 369.462 130.247 369.67 131.681L369.67 131.685C369.81 132.654 369.261 133.598 368.355 133.948L366.943 134.493L367.393 135.951C367.728 137.036 367.134 138.203 366.062 138.562L364.97 138.929L365.319 139.817C365.768 140.96 365.135 142.258 363.96 142.6L363.006 142.877L363.045 143.132C363.209 144.194 362.544 145.215 361.514 145.485L360.566 145.733L347.495 141.419C346.27 141.015 345.142 140.361 344.181 139.495L339.84 137.204C339.373 136.958 339.159 136.401 339.335 135.893L343.359 124.304C343.553 123.744 344.153 123.441 344.706 123.624Z"
        fill="#FFCE88" />
    <path
        d="M187.346 107.806C187.283 107.625 185.745 104.996 183.761 102.141C174.531 88.8435 160.844 76.0267 144.793 76.5081L144.781 76.4103C152.038 75.6143 159.149 77.5469 165.391 80.9914C175.688 86.5426 185.721 97.1206 191.21 105.252L187.346 107.806Z"
        fill="#FFBE55" />
    <path
        d="M292.901 91.2135C292.901 91.2135 293.373 90.262 293.344 88.0641C293.309 85.3458 292.764 81.2419 292.656 80.8791C292.459 80.2231 301.251 77.4672 301.251 77.4672C301.251 77.4672 315.359 76.7453 317.458 75.1706C319.558 73.5959 321.324 72.9475 320.345 74.5802C318.573 77.5328 314.44 81.8634 313.521 82.454C312.602 83.0444 301.645 85.8003 301.448 85.8003C301.251 85.8003 301.317 92.6898 301.317 92.6898L292.901 91.2135Z"
        fill="#F7A491" />
    <path
        d="M302.056 88.2771C302.056 88.2771 292.922 86.7246 292.755 87.6373C289.064 107.847 288.439 114.527 288.031 114.736C286.64 115.451 266.759 98.0032 263.474 96.8613C261.902 96.315 260.192 96.4061 258.553 96.4544C254.645 96.5697 255.963 96.4761 253.903 96.5775L253.905 96.5819C253.793 96.5893 253.73 96.5939 253.73 96.5939L253.752 100.27C258.155 104.232 268.235 164.24 269.084 164.2C270.032 164.155 289.957 169.17 289.605 167.491C289.548 167.218 276.098 156.211 272.283 140.326C271.002 134.993 270.37 129.251 269.676 124.226C274.103 126.446 291.393 134.954 294.133 133.83C302.657 130.333 302.056 88.2771 302.056 88.2771Z"
        fill="#D3D3D3" />
    <path
        d="M336.367 194.825C336.367 194.825 354.904 209.345 355.522 211.919C356.413 215.628 373.388 210.753 369.295 209.998C368.353 209.825 365.339 209.06 365.091 208.928C363.766 208.219 347.271 188.343 347.271 188.343L336.367 194.825Z"
        fill="#F7A491" />
    <path
        d="M377.254 209.998L365.419 209.034C365.419 209.034 362.036 211.834 355.534 211.965C355.534 211.965 354.495 214.935 354.989 218.407C355.074 219.006 355.174 220.816 355.778 220.775C357.965 220.626 363.791 219.177 370.429 217.849C370.429 217.849 379.35 215.96 384.502 212.877C389.655 209.795 377.254 209.998 377.254 209.998Z"
        fill="#1E0F00" />
    <path
        d="M253.309 158.401C253.309 158.401 266.884 160.682 281.897 157.17C299.269 153.106 318.478 149.348 324.107 152.621C328.637 155.254 356.927 198.002 356.927 198.002L346.002 205.974L314.852 171.094C314.852 171.094 275.11 185.757 266.185 184.132C245.857 180.431 245.568 164.196 253.309 158.401Z"
        fill="#AEE0FF" />
    <path d="M268.147 149.775L281.729 165.916L256.533 173.593L253.307 158.401L268.147 149.775Z" fill="#AEE0FF" />
    <path
        d="M295.753 223.504C295.753 223.504 294.927 245.924 294.415 249.721C293.906 253.501 303.93 264.888 302.649 260.927C302.354 260.016 301.595 257 301.594 256.719C301.588 255.216 305.311 229.64 305.311 229.64L295.753 223.504Z"
        fill="#F7A491" />
    <path
        d="M306.429 267.93L301.654 257.058C301.654 257.058 297.584 255.412 294.379 249.753C294.379 249.753 291.272 250.25 288.452 252.334C287.965 252.694 284.65 255.118 284.881 255.677C285.731 257.736 290.246 262.147 295.182 266.963C295.182 266.963 302.179 272.607 307.34 275.677C312.5 278.746 306.429 267.93 306.429 267.93Z"
        fill="#1E0F00" />
    <path
        d="M317.755 179.302C313.007 172.972 274.698 166.96 274.698 166.96L264.016 146.429L240.395 160.996C240.395 160.996 242.756 179.792 244.528 184.814C246.89 191.506 262.765 191.847 272.461 191.748C281.381 191.656 297.676 193.475 297.676 193.475L292.165 242.096C292.165 242.096 302.998 244.561 306.042 244.163C306.386 244.117 323.66 187.176 317.755 179.302Z"
        fill="#CCE9FF" />
    <path
        d="M253.86 96.627L240.533 97.3573C240.533 97.3573 240.228 97.4648 240.135 97.4819C239.049 97.6829 240.035 136.52 241.004 151.026C241.972 165.531 243.936 171.625 243.936 171.625C243.936 171.625 262.011 168.416 267.557 166.263C269.859 165.369 275.431 158.403 275.431 158.403C275.431 158.403 269.739 150.751 266.872 138.32C264.66 128.733 261.933 111.739 260.372 108.191C256.788 100.045 253.86 96.627 253.86 96.627Z"
        fill="white" />
    <path
        d="M240.912 85.6044L240.533 97.3712C240.533 97.3712 249.16 112.236 253.589 110.165C257.306 108.426 254.007 97.1191 254.007 97.1191C254.007 97.1191 253.363 94.5263 252.471 91.5478C251.847 89.4666 251.329 87.2121 251.367 85.5577C251.46 81.5364 240.912 85.6044 240.912 85.6044Z"
        fill="#F7A491" />
    <path
        d="M251.22 58.7668C251.22 58.7668 255.616 65.3941 255.945 70.9713C256.273 76.5486 255.091 80.354 255.091 80.354L240.984 63.491L251.22 58.7668Z"
        fill="#1E0F00" />
    <path
        d="M257.404 69.8298C257.603 71.7828 256.844 73.4596 255.708 73.5754C254.573 73.6912 253.492 72.2022 253.293 70.2492C253.095 68.2962 253.853 66.6194 254.988 66.5034C256.124 66.3876 257.205 67.8768 257.404 69.8298Z"
        fill="#F48C7F" />
    <path
        d="M236.42 66.1929C236.096 66.124 236.128 82.3583 240.833 86.1787C245.539 89.9992 253.729 90.3345 256.12 86.4863C258.766 82.23 256.249 65.1237 249.251 61.4904C242.252 57.8574 236.42 66.1929 236.42 66.1929Z"
        fill="#F7A491" />
    <path
        d="M235.228 56.1259C231.635 59.2756 229.896 61.5763 227.466 67.1757C224.477 74.061 230.407 81.1945 235.378 84.0293C240.351 86.8642 240.772 90.3441 240.772 90.3441L240.969 88.1787C241.182 86.4973 240.674 85.5377 240.198 84.5207C239.775 83.6161 238.416 80.5161 237.885 79.6979C236.486 77.5402 236.21 77.073 236.901 75.0228C237.433 73.4441 236.817 69.9642 237.639 67.3622L244.332 65.9187C244.332 65.9187 248.52 64.912 250.635 62.4721C256.707 55.4664 244.702 47.6545 235.228 56.1259Z"
        fill="#1E0F00" />
    <path
        d="M238.492 76.7992C239.316 78.5808 239.145 80.4136 238.11 80.893C237.074 81.3723 235.567 80.3168 234.742 78.5352C233.918 76.7537 234.089 74.9209 235.125 74.4414C236.16 73.9622 237.668 75.0179 238.492 76.7992Z"
        fill="#F7A491" />
    <path
        d="M148.351 82.6169L147.266 75.1382L152.811 70.0039C153.442 69.419 153.129 68.364 152.281 68.2184L144.833 66.9399L141.664 60.0796C141.302 59.2981 140.202 59.2699 139.802 60.0317L136.284 66.7204L128.78 67.6146C127.926 67.7165 127.559 68.754 128.159 69.3705L133.434 74.7828L131.965 82.1959C131.798 83.0402 132.671 83.7098 133.443 83.329L140.221 79.9852L146.817 83.6726C147.568 84.0927 148.475 83.4688 148.351 82.6169Z"
        fill="#FFBE55" />
    <path
        d="M192.887 32.016C193.648 35.141 195.02 40.08 195.02 40.08C194.911 41.4375 194.51 47.0883 194.033 54.0138L204.213 49.9398C204.213 49.9398 204.09 38.6553 204.545 37.9648C204.929 37.3807 205.574 38.1097 208.694 33.6446C209.595 32.3557 209.764 30.0529 209.764 30.0529C209.764 30.0529 209.949 27.2186 209.313 26.955C208.676 26.6906 207.946 27.1142 207.716 27.6038C207.485 28.0937 207.545 29.2342 207.314 29.7241C207.084 30.2139 205.611 30.8041 204.991 30.7734C204.371 30.7431 205.069 22.3893 205.069 22.3893C205.069 22.3893 205.415 20.0207 205.59 19.2454C205.74 18.5846 206.342 16.6469 206.342 16.6469C206.342 16.6469 207.048 13.8355 206.175 13.6208C205.66 13.4942 204.349 15.7785 203.45 18.2024C202.482 20.8132 201.933 23.5819 201.656 23.5444C201.006 23.4571 201.351 18.8771 201.351 18.8771C201.351 18.8771 201.999 16.779 201.982 15.7889C202.594 14.5761 203 12.3255 201.923 12.1392C201.724 12.105 200.305 14.9638 200.305 14.9638C200.305 14.9638 199.747 16.9766 199.422 17.917C198.848 19.5763 198.761 22.1964 198.462 23.3517C198.213 24.3127 197.988 23.9178 197.886 23.958C197.806 23.9892 197.945 22.6636 198.104 20.8414C198.184 19.9236 198.078 18.8651 198.335 17.8198C198.573 16.852 198.709 15.4666 198.771 14.6299C198.945 12.2608 197.454 12.5034 196.938 14.6692C196.742 15.4945 196.535 16.3948 196.329 17.3077C195.528 20.859 195.551 24.2801 195.168 24.3088C194.671 24.3458 194.998 18.1165 194.998 18.1165C194.998 18.1165 194.235 14.6685 193.477 17.8685C192.598 21.5818 192.69 24.6094 192.702 24.743C192.782 25.6497 192.127 28.8911 192.887 32.016Z"
        fill="#F8A492" />
    <path
        d="M240.518 97.3772C240.518 97.3772 227.324 96.7557 223.915 95.2135C221.848 94.2784 204.871 80.5983 204.871 80.5983L205.061 43.9706L193.121 43.0625C193.121 43.0625 186.93 83.5479 189.074 87.9797C191.289 92.5562 216.14 111.396 221.11 119.572C223.973 124.282 229.944 188.337 230.848 188.914C237.278 192.261 257.135 195.603 256.667 193.573C243.741 137.472 240.518 97.3772 240.518 97.3772Z"
        fill="#D3D3D3" />
    <path
        d="M339.22 41.7518C339.22 63.6823 321.442 81.4605 299.512 81.4605C277.581 81.4605 259.803 63.6823 259.803 41.7518C259.803 19.8212 277.581 2.04297 299.512 2.04297C321.442 2.04297 339.22 19.8212 339.22 41.7518Z"
        fill="#FFCE88" />
    <path
        d="M332.831 41.7514C332.831 60.154 317.913 75.0723 299.511 75.0723C281.108 75.0723 266.189 60.154 266.189 41.7514C266.189 23.3488 281.108 8.43042 299.511 8.43042C317.913 8.43042 332.831 23.3488 332.831 41.7514Z"
        fill="#FFBE55" />
    <path
        d="M289.196 63.1462L291.092 57.9165C288.768 56.9541 286.611 55.6689 284.927 54.3516C283.521 53.2524 283.211 51.2504 284.216 49.776L284.338 49.5983C285.446 47.9739 287.708 47.6236 289.24 48.8563C290.802 50.1124 292.684 51.2689 294.838 52.0501C297.976 53.1877 300.562 52.7549 301.36 50.5531C302.119 48.4614 300.836 46.5015 297.262 43.6481C292.091 39.531 289.07 35.3216 291.006 29.9819C292.762 25.1376 297.552 22.5767 303.862 23.5564L305.758 18.3269L311.153 20.2829L309.396 25.127C311.365 25.9424 312.913 26.8068 314.156 27.6729C315.675 28.7314 316.048 30.8221 315.004 32.3513C313.924 33.932 311.748 34.3075 310.207 33.1727C309.051 32.3221 307.562 31.4381 305.619 30.7336C302.041 29.4363 300.327 30.5586 299.768 32.0999C299.109 33.9165 300.617 35.7708 304.657 39.2289C310.369 43.9161 311.914 47.9018 310.118 52.8561C308.341 57.7554 303.356 60.6816 296.627 59.4873L294.591 65.1024L289.196 63.1462Z"
        fill="white" />
    <path
        d="M298.496 81.6666C298.496 81.6666 302.17 80.0919 303.154 79.7638C304.139 79.4357 307.288 78.8451 307.288 78.8451C307.288 78.8451 312.177 73.8256 313.423 73.6944C314.67 73.5631 310.569 79.1732 310.569 79.1732L308.863 80.8138C308.863 80.8138 311.619 78.4514 312.144 78.1235C312.669 77.7954 316.802 71.8244 317.852 72.2181C318.902 72.6116 316.081 76.811 314.703 79.0422C313.325 81.2729 307.025 82.6507 307.025 82.6507L298.496 81.6666Z"
        fill="#F7A491" />
    <path
        d="M342.411 97.8766C342.404 98.8607 320.09 99.132 315.465 118.919L312.49 117.942C319.118 97.8272 341.211 98.6373 342.293 97.8972C342.307 97.8863 342.314 97.875 342.313 97.8766H342.411Z"
        fill="#FFBE55" />
    <path
        d="M436.305 225.171L437.071 222.532C441.128 221.766 444.621 219.004 445.771 215.046C446.14 213.78 446.393 212.709 446.581 211.276L441.146 209.696L442.112 206.371L447.02 207.798C447.216 206.138 447.498 203.988 448.096 201.93C449.906 195.703 455.361 192.882 461.219 194.585C462.89 195.071 464.18 195.7 465.138 196.346C466.008 196.932 466.236 198.115 465.664 198.994C465.088 199.878 463.916 200.131 463.017 199.578C462.271 199.119 461.322 198.678 460.129 198.331C456.013 197.135 453.497 199.494 452.408 203.24C451.748 205.509 451.574 207.29 451.4 209.071L458.999 211.28L458.032 214.604L450.855 212.518C450.431 214.569 449.954 216.605 448.926 218.367C447.686 220.467 445.868 221.999 443.629 223.008L443.598 223.113L457.467 227.144C458.492 227.442 459.081 228.515 458.784 229.541L458.743 229.68C458.445 230.705 457.372 231.295 456.347 230.997L436.305 225.171Z"
        fill="#FFBE55" />
</svg>
