<svg width="64" height="63" viewBox="0 0 64 64" fill="none" xmlns="http://www.w3.org/2000/svg">
<rect opacity="0.4" x="11" y="12.4365" width="36" height="36" fill="#CCE9FF"/>
<path d="M4.82031 15.9277L5.95954 14.7885L8.238 17.067L7.09877 18.2062L4.82031 15.9277Z" fill="#FFC700"/>
<path d="M48.2812 19.1318L49.4205 17.9926L51.6989 20.2711L50.5597 21.4103L48.2812 19.1318Z" fill="#FFC700"/>
<path d="M4.53711 23.6128L6.81557 21.3343L7.95479 22.4736L5.67634 24.752L4.53711 23.6128Z" fill="#FFC700"/>
<path d="M48 13.7153L50.2785 11.4369L51.4177 12.5761L49.1392 14.8546L48 13.7153Z" fill="#FFC700"/>
<path d="M29.0007 20.8541L25.2661 23.3949L26.4116 18.8757L22.959 15.9274L27.4008 15.6744L29.0007 11.3115L30.6005 15.6744L35.0423 15.9274L31.5897 18.8757L32.7352 23.3949L29.0007 20.8541Z" fill="#F3F3F1"/>
<path d="M22.1543 29.0339H35.8487V47.5617H22.1543V29.0339Z" fill="white"/>
<path d="M35.8457 41.9226H47.1235V47.5615H35.8457V41.9226Z" fill="#F3F3F1"/>
<path d="M10.875 38.7004H22.1528V47.5615H10.875V38.7004Z" fill="#F3F3F1"/>
<path d="M29.1263 20.4848L29.6373 20.8315L30.2873 18.2676L26.418 14.9634L31.1575 14.6944L30.9192 14.68L29.1263 9.79053L27.3334 14.68L22.3555 14.9634L26.2248 18.2676L24.941 23.3322L29.1263 20.4848Z" fill="#D5DBE1"/>
<path d="M35.8457 41.9226H39.4707V47.5615H35.8457V41.9226Z" fill="#D5DBE1"/>
<path d="M10.875 38.7004H14.4V47.5615H10.875V38.7004Z" fill="#D5DBE1"/>
<path d="M22.1543 29.0339H25.7793V47.5617H22.1543V29.0339Z" fill="#D5DBE1"/>
<path d="M33.3094 24.6865C33.044 24.6865 32.7785 24.6088 32.5474 24.4518L29.1241 22.1226L25.7008 24.4518C25.2367 24.7695 24.6229 24.7659 24.1624 24.4409C23.702 24.1177 23.4872 23.5454 23.6262 22.9983L24.7041 18.7498L21.474 15.9909C21.0533 15.6316 20.8944 15.0521 21.0713 14.5285C21.2483 14.003 21.7249 13.6401 22.2774 13.6076L26.367 13.3765L27.8548 9.32305C28.048 8.79041 28.5572 8.43652 29.1241 8.43652C29.691 8.43652 30.2002 8.79041 30.3952 9.32485L31.883 13.3783L35.9726 13.6094C36.525 13.6419 37.0017 14.0048 37.1787 14.5303C37.3556 15.0539 37.1967 15.6316 36.776 15.9928L33.5459 18.7516L34.6238 23.0001C34.7628 23.5472 34.548 24.1195 34.0876 24.4427C33.8528 24.6052 33.5802 24.6865 33.3094 24.6865ZM29.1241 19.1308C29.3895 19.1308 29.6549 19.2084 29.886 19.3655L31.1192 20.2051L30.713 18.6018C30.5866 18.1016 30.7545 17.5744 31.1463 17.2386L32.4517 16.1246L30.8412 16.0325C30.3013 16 29.8319 15.6533 29.6459 15.146L29.1241 13.7232L28.6023 15.146C28.4163 15.6533 27.9469 16.0018 27.407 16.0325L25.7965 16.1246L27.1019 17.2386C27.4937 17.5744 27.6616 18.1016 27.5352 18.6018L27.129 20.2051L28.3622 19.3655C28.5933 19.2084 28.8587 19.1308 29.1241 19.1308Z" fill="black"/>
<path d="M35.8481 48.7699H22.1536C21.4866 48.7699 20.9453 48.2286 20.9453 47.5616V29.0338C20.9453 28.3668 21.4866 27.8254 22.1536 27.8254H35.8481C36.5151 27.8254 37.0564 28.3668 37.0564 29.0338V47.5616C37.0564 48.2286 36.5151 48.7699 35.8481 48.7699ZM23.362 46.3532H34.6398V30.2421H23.362V46.3532Z" fill="black"/>
<path d="M47.1248 48.7697H35.847C35.18 48.7697 34.6387 48.2283 34.6387 47.5613V41.9224C34.6387 41.2554 35.18 40.7141 35.847 40.7141H47.1248C47.7918 40.7141 48.3331 41.2554 48.3331 41.9224V47.5613C48.3331 48.2283 47.7918 48.7697 47.1248 48.7697ZM37.0553 46.353H45.9165V43.1308H37.0553V46.353Z" fill="black"/>
<path d="M22.1521 48.77H10.8743C10.2073 48.77 9.66602 48.2286 9.66602 47.5616V38.7005C9.66602 38.0335 10.2073 37.4922 10.8743 37.4922H22.1521C22.8191 37.4922 23.3605 38.0335 23.3605 38.7005V47.5616C23.3605 48.2286 22.8191 48.77 22.1521 48.77ZM12.0827 46.3533H20.9438V39.9089H12.0827V46.3533Z" fill="black"/>
<path d="M30.2081 42.3253H27.7915V36.6864H27.3887V34.2698H28.9998C29.6668 34.2698 30.2081 34.8111 30.2081 35.4781V42.3253Z" fill="#FFC700"/>
<path d="M3.2207 46.3533H54.7763V48.7699H3.2207V46.3533Z" fill="black"/>
</svg>
