<svg width="64" height="66" viewBox="0 0 64 66" fill="none" xmlns="http://www.w3.org/2000/svg">
<rect opacity="0.4" x="11" y="9" width="36" height="36" fill="#CCE9FF"/>
<path d="M9.2168 3.03906L11.7702 0.485622L13.047 1.76234L10.4935 4.31578L9.2168 3.03906Z" fill="white"/>
<path d="M1.875 10.3794L4.42844 7.82595L5.70516 9.10267L3.15172 11.6561L1.875 10.3794Z" fill="white"/>
<path d="M1.87305 1.44141L3.14977 0.164685L5.7032 2.71813L4.42649 3.99485L1.87305 1.44141Z" fill="white"/>
<path d="M48.306 53.5468C46.8128 53.5468 45.5977 52.3317 45.5977 50.8385C45.5977 49.3453 46.8128 48.1301 48.306 48.1301C49.7992 48.1301 51.0143 49.3453 51.0143 50.8385C51.0143 52.3317 49.7992 53.5468 48.306 53.5468ZM48.306 49.9357C47.8077 49.9357 47.4032 50.3401 47.4032 50.8385C47.4032 51.3368 47.8077 51.7412 48.306 51.7412C48.8043 51.7412 49.2088 51.3368 49.2088 50.8385C49.2088 50.3401 48.8043 49.9357 48.306 49.9357Z" fill="#FFC700"/>
<path d="M37.3633 15.6355L39.8604 13.1384L37.3633 15.6355Z" fill="#2FDF84"/>
<path d="M37.3633 39.364L39.8604 41.8611L37.3633 39.364Z" fill="#2FDF84"/>
<path d="M13.6358 39.364L11.1387 41.8611L13.6358 39.364Z" fill="#2FDF84"/>
<path d="M13.6358 15.6355L11.1387 13.1384L13.6358 15.6355Z" fill="#2FDF84"/>
<path d="M25.9512 20.729C29.4413 20.729 32.2706 23.5583 32.2706 27.0484L25.9512 20.729Z" fill="#2FDF84"/>
<path d="M36.7845 27.5C36.7845 20.4728 30.3603 14.946 23.0641 16.4698C18.7885 17.3636 15.3381 20.8303 14.4606 25.1094C13.5091 29.7443 15.4031 34.0126 18.7145 36.5043C20.502 37.8512 21.4373 40.0522 21.4373 42.2911V45.4761C21.4373 47.0162 22.2462 47.8125 23.2428 47.8125H27.7567C28.7534 47.8125 29.5623 47.0036 29.5623 46.0069V41.9932C29.5623 39.7561 30.7124 37.7447 32.4728 36.3617C35.0963 34.2979 36.7845 31.0985 36.7845 27.5Z" fill="white"/>
<path d="M25.0484 45.4761V42.2911C25.0484 40.0522 24.1131 37.8513 22.3256 36.5043C19.016 34.0108 17.1202 29.7443 18.0717 25.1094C18.951 20.8303 22.3996 17.3636 26.6752 16.4699C26.8901 16.4247 27.1031 16.4067 27.3162 16.3724C25.962 16.1521 24.5338 16.1611 23.0641 16.4699C18.7885 17.3636 15.3381 20.8303 14.4606 25.1094C13.5091 29.7443 15.4031 34.0126 18.7145 36.5043C20.502 37.8513 21.4373 40.0522 21.4373 42.2911V45.4761C21.4373 47.0163 22.2462 47.8125 23.2428 47.8125H26.854C25.8573 47.8125 25.0484 47.0163 25.0484 45.4761Z" fill="#D5DBE1"/>
<path d="M28.0458 47.8124H22.9542C22.1164 47.8124 21.4375 47.1335 21.4375 46.2957V42.3958H29.5625V46.2957C29.5625 47.1335 28.8836 47.8124 28.0458 47.8124Z" fill="#F3F3F1"/>
<path d="M25.0486 46.2957V42.3958H21.4375V46.2957C21.4375 47.1335 22.1164 47.8124 22.9542 47.8124H26.5653C25.7275 47.8124 25.0486 47.1335 25.0486 46.2957Z" fill="#D5DBE1"/>
<path d="M21.4375 41.0417H29.5625V43.7501H21.4375V41.0417Z" fill="black"/>
<path d="M24.1465 5.83325H26.8548V12.0751H24.1465V5.83325Z" fill="black"/>
<path d="M35.4434 15.6384L39.857 11.2248L41.7721 13.1399L37.3584 17.5535L35.4434 15.6384Z" fill="black"/>
<path d="M40.9238 26.1458H47.1656V28.8541H40.9238V26.1458Z" fill="black"/>
<path d="M35.4414 39.3652L37.3565 37.4502L41.7701 41.8638L39.855 43.7789L35.4414 39.3652Z" fill="black"/>
<path d="M9.21484 41.8616L13.6285 37.448L15.5435 39.363L11.1299 43.7767L9.21484 41.8616Z" fill="black"/>
<path d="M3.83398 26.1458H10.0758V28.8541H3.83398V26.1458Z" fill="black"/>
<path d="M9.2168 13.1365L11.1319 11.2214L15.5455 15.635L13.6304 17.5501L9.2168 13.1365Z" fill="black"/>
<path d="M33.6248 27.0486H30.9164C30.9164 24.3096 28.6902 22.0833 25.9512 22.0833V19.375C30.1816 19.375 33.6248 22.8182 33.6248 27.0486Z" fill="black"/>
<path d="M27.7587 49.1668H23.2448C21.7227 49.1668 20.0851 48.0112 20.0851 45.4762V42.2912C20.0851 40.3755 19.269 38.6169 17.9022 37.5877C13.957 34.6176 12.1316 29.7318 13.1373 24.8369C14.1213 20.0413 18.0015 16.1468 22.7916 15.1447C27.0527 14.2545 31.4131 15.5329 34.4447 18.5662L32.5272 20.4819C30.1095 18.0606 26.7638 17.0802 23.3441 17.797C19.5958 18.5806 16.5606 21.6284 15.7897 25.3822C14.997 29.2406 16.4306 33.0901 19.5308 35.4247C21.5729 36.963 22.7934 39.5305 22.7934 42.293V45.478C22.7934 45.6423 22.8151 46.4602 23.2448 46.4602H27.7587C28.0079 46.4602 28.2101 46.258 28.2101 46.0088V41.9951C28.2101 39.4511 29.4595 37.0118 31.637 35.2983C34.0492 33.4006 35.4323 30.5587 35.4323 27.5001C35.4323 26.1856 35.1795 24.9091 34.683 23.7066L37.1855 22.672C37.8193 24.205 38.1406 25.83 38.1406 27.5001C38.1406 31.3965 36.3802 35.013 33.3108 37.427C31.7905 38.6223 30.9184 40.287 30.9184 41.9933V46.007C30.9184 47.7494 29.5011 49.1668 27.7587 49.1668Z" fill="black"/>
</svg>
