<svg width="64" height="64" viewBox="0 0 64 64" fill="none" xmlns="http://www.w3.org/2000/svg">
<rect opacity="0.4" x="11" y="7" width="36" height="36" fill="#CCE9FF"/>
<path d="M47.4941 50.8887L50.2047 48.1781L51.56 49.5334L48.8494 52.244L47.4941 50.8887Z" fill="#FFC700"/>
<path d="M55.2871 43.0969L57.9977 40.3863L59.353 41.7416L56.6424 44.4522L55.2871 43.0969Z" fill="#FFC700"/>
<path d="M55.2852 49.8723L56.6404 48.517L59.351 51.2276L57.9957 52.5829L55.2852 49.8723Z" fill="#FFC700"/>
<path d="M8.23633 17.1519C6.65124 17.1519 5.36133 15.8619 5.36133 14.2769C5.36133 12.6918 6.65124 11.4019 8.23633 11.4019C9.82141 11.4019 11.1113 12.6918 11.1113 14.2769C11.1113 15.8619 9.82333 17.1519 8.23633 17.1519ZM8.23633 13.3185C7.70733 13.3185 7.27799 13.7498 7.27799 14.2769C7.27799 14.8039 7.70733 15.2352 8.23633 15.2352C8.76533 15.2352 9.19466 14.8039 9.19466 14.2769C9.19466 13.7498 8.76533 13.3185 8.23633 13.3185Z" fill="black"/>
<path d="M41.209 33.5625C43.5907 33.5625 45.5215 31.6317 45.5215 29.25C45.5215 26.8683 43.5907 24.9375 41.209 24.9375C38.8273 24.9375 36.8965 26.8683 36.8965 29.25C36.8965 31.6317 38.8273 33.5625 41.209 33.5625Z" fill="#F3F3F1"/>
<path d="M32.1035 45.0626V42.1876C32.1035 40.0697 33.8189 38.3542 35.9368 38.3542H46.4785C48.5964 38.3542 50.3118 40.0697 50.3118 42.1876V45.0626H32.1035Z" fill="white"/>
<path d="M42.6458 1.9375H18.6875V18.2292H42.6458L36.8958 10.0833L42.6458 1.9375Z" fill="white"/>
<path d="M40.7298 29.25C40.7298 27.5595 41.7112 26.1124 43.1257 25.4052C42.5468 25.1157 41.9009 24.9375 41.209 24.9375C38.8266 24.9375 36.8965 26.8676 36.8965 29.25C36.8965 31.6324 38.8266 33.5625 41.209 33.5625C41.9009 33.5625 42.5468 33.3843 43.1257 33.0948C41.7112 32.3876 40.7298 30.9386 40.7298 29.25Z" fill="#D5DBE1"/>
<path d="M18.6875 1.9375H22.5208V18.2292H18.6875V1.9375Z" fill="#D5DBE1"/>
<path d="M39.7702 38.3542H35.9369C33.8189 38.3542 32.1035 40.0697 32.1035 42.1876V45.0626H35.9369V42.1876C35.9369 40.0697 37.6523 38.3542 39.7702 38.3542Z" fill="#D5DBE1"/>
<path d="M41.207 35C38.0369 35 35.457 32.4202 35.457 29.25C35.457 26.0798 38.0369 23.5 41.207 23.5C44.3772 23.5 46.957 26.0798 46.957 29.25C46.957 32.4202 44.3772 35 41.207 35ZM41.207 26.375C39.6219 26.375 38.332 27.6649 38.332 29.25C38.332 30.8351 39.6219 32.125 41.207 32.125C42.7921 32.125 44.082 30.8351 44.082 29.25C44.082 27.6649 42.7921 26.375 41.207 26.375Z" fill="black"/>
<path d="M51.7493 45.0626H48.8743V42.1876C48.8743 40.867 47.7991 39.7917 46.4785 39.7917H35.9368C34.6163 39.7917 33.541 40.867 33.541 42.1876V45.0626H30.666V42.1876C30.666 39.28 33.0293 36.9167 35.9368 36.9167H46.4785C49.3861 36.9167 51.7493 39.28 51.7493 42.1876V45.0626Z" fill="black"/>
<path d="M17.25 1.9375H20.125V45.0625H17.25V1.9375Z" fill="black"/>
<path d="M42.6458 19.6667H18.6875C17.894 19.6667 17.25 19.0227 17.25 18.2292V1.9375C17.25 1.144 17.894 0.5 18.6875 0.5H29.2982V3.375H20.125V16.7917H39.8724L35.7209 10.9132C35.3702 10.4149 35.3702 9.75366 35.7209 9.25533L39.8724 3.375H34.5V0.5H42.6458C43.1825 0.5 43.6751 0.799 43.9223 1.27625C44.1696 1.75158 44.1293 2.32658 43.8207 2.7655L38.6553 10.0833L43.8207 17.3992C44.1313 17.8382 44.1696 18.4132 43.9223 18.8885C43.6751 19.3677 43.1825 19.6667 42.6458 19.6667Z" fill="black"/>
</svg>
